<mxfile host="app.diagrams.net" agent="Mozilla/5.0 (Macintosh; Intel Mac OS X 10_15_7) AppleWebKit/537.36 (KHTML, like Gecko) Chrome/128.0.0.0 Safari/537.36" version="24.7.8" pages="7">
  <diagram name="Page-1" id="38b20595-45e3-9b7f-d5ca-b57f44c5b66d">
    <mxGraphModel dx="1408" dy="748" grid="1" gridSize="10" guides="1" tooltips="1" connect="1" arrows="1" fold="1" page="1" pageScale="1" pageWidth="1100" pageHeight="850" background="none" math="0" shadow="0">
      <root>
        <mxCell id="0" />
        <mxCell id="1" parent="0" />
        <mxCell id="48ef80bc37b76060-389" value="" style="verticalLabelPosition=bottom;html=1;verticalAlign=top;align=center;strokeWidth=1;shape=mxgraph.floorplan.desk_corner_2;rounded=0;shadow=0;comic=0;fontFamily=Verdana;fontSize=12;flipH=1;flipV=1;" parent="1" vertex="1">
          <mxGeometry x="2292" y="840" width="192" height="97" as="geometry" />
        </mxCell>
        <mxCell id="48ef80bc37b76060-48" value="" style="verticalLabelPosition=bottom;html=1;verticalAlign=top;align=center;strokeWidth=1;shape=mxgraph.floorplan.office_chair;shadow=0;rounded=0;comic=0;fontFamily=Verdana;fontSize=12;" parent="1" vertex="1">
          <mxGeometry x="493" y="1372" width="40" height="43" as="geometry" />
        </mxCell>
        <mxCell id="48ef80bc37b76060-49" value="" style="shape=rect;shadow=0;rounded=0;comic=0;fontFamily=Verdana;fontSize=12;align=center;html=1;" parent="1" vertex="1">
          <mxGeometry x="403" y="1392" width="300" height="50" as="geometry" />
        </mxCell>
        <mxCell id="48ef80bc37b76060-10" value="" style="verticalLabelPosition=bottom;html=1;verticalAlign=top;align=center;strokeWidth=1;shape=mxgraph.floorplan.office_chair;shadow=0;rounded=0;comic=0;fontFamily=Verdana;fontSize=12;" parent="1" vertex="1">
          <mxGeometry x="1642" y="1283" width="40" height="43" as="geometry" />
        </mxCell>
        <mxCell id="48ef80bc37b76060-11" value="" style="verticalLabelPosition=bottom;html=1;verticalAlign=top;align=center;strokeWidth=1;shape=mxgraph.floorplan.office_chair;shadow=0;direction=west;rounded=0;comic=0;fontFamily=Verdana;fontSize=12;" parent="1" vertex="1">
          <mxGeometry x="1642" y="1380" width="40" height="43" as="geometry" />
        </mxCell>
        <mxCell id="48ef80bc37b76060-12" value="" style="verticalLabelPosition=bottom;html=1;verticalAlign=top;align=center;strokeWidth=1;shape=mxgraph.floorplan.office_chair;shadow=0;direction=north;rounded=0;comic=0;fontFamily=Verdana;fontSize=12;" parent="1" vertex="1">
          <mxGeometry x="1592" y="1333" width="43" height="40" as="geometry" />
        </mxCell>
        <mxCell id="48ef80bc37b76060-13" value="" style="verticalLabelPosition=bottom;html=1;verticalAlign=top;align=center;strokeWidth=1;shape=mxgraph.floorplan.office_chair;shadow=0;direction=south;rounded=0;comic=0;fontFamily=Verdana;fontSize=12;" parent="1" vertex="1">
          <mxGeometry x="1869" y="1333" width="43" height="40" as="geometry" />
        </mxCell>
        <mxCell id="48ef80bc37b76060-14" value="" style="verticalLabelPosition=bottom;html=1;verticalAlign=top;align=center;strokeWidth=1;shape=mxgraph.floorplan.office_chair;shadow=0;rounded=0;comic=0;fontFamily=Verdana;fontSize=12;" parent="1" vertex="1">
          <mxGeometry x="1702" y="1283" width="40" height="43" as="geometry" />
        </mxCell>
        <mxCell id="48ef80bc37b76060-15" value="" style="verticalLabelPosition=bottom;html=1;verticalAlign=top;align=center;strokeWidth=1;shape=mxgraph.floorplan.office_chair;shadow=0;direction=west;rounded=0;comic=0;fontFamily=Verdana;fontSize=12;" parent="1" vertex="1">
          <mxGeometry x="1702" y="1380" width="40" height="43" as="geometry" />
        </mxCell>
        <mxCell id="48ef80bc37b76060-16" value="" style="verticalLabelPosition=bottom;html=1;verticalAlign=top;align=center;strokeWidth=1;shape=mxgraph.floorplan.office_chair;shadow=0;rounded=0;comic=0;fontFamily=Verdana;fontSize=12;" parent="1" vertex="1">
          <mxGeometry x="1762" y="1283" width="40" height="43" as="geometry" />
        </mxCell>
        <mxCell id="48ef80bc37b76060-17" value="" style="verticalLabelPosition=bottom;html=1;verticalAlign=top;align=center;strokeWidth=1;shape=mxgraph.floorplan.office_chair;shadow=0;direction=west;rounded=0;comic=0;fontFamily=Verdana;fontSize=12;" parent="1" vertex="1">
          <mxGeometry x="1762" y="1380" width="40" height="43" as="geometry" />
        </mxCell>
        <mxCell id="48ef80bc37b76060-18" value="" style="verticalLabelPosition=bottom;html=1;verticalAlign=top;align=center;strokeWidth=1;shape=mxgraph.floorplan.office_chair;shadow=0;rounded=0;comic=0;fontFamily=Verdana;fontSize=12;" parent="1" vertex="1">
          <mxGeometry x="1822" y="1283" width="40" height="43" as="geometry" />
        </mxCell>
        <mxCell id="48ef80bc37b76060-19" value="" style="verticalLabelPosition=bottom;html=1;verticalAlign=top;align=center;strokeWidth=1;shape=mxgraph.floorplan.office_chair;shadow=0;direction=west;rounded=0;comic=0;fontFamily=Verdana;fontSize=12;" parent="1" vertex="1">
          <mxGeometry x="1822" y="1380" width="40" height="43" as="geometry" />
        </mxCell>
        <mxCell id="48ef80bc37b76060-20" value="" style="shape=ellipse;fillColor=#ffffff;strokeColor=#000000;shadow=0;rounded=0;comic=0;fontFamily=Verdana;fontSize=12;align=center;html=1;" parent="1" vertex="1">
          <mxGeometry x="1612" y="1303" width="280" height="100" as="geometry" />
        </mxCell>
        <mxCell id="48ef80bc37b76060-46" value="" style="group" parent="1" vertex="1" connectable="0">
          <mxGeometry x="916" y="1372" width="80" height="70" as="geometry" />
        </mxCell>
        <mxCell id="48ef80bc37b76060-1" value="" style="verticalLabelPosition=bottom;html=1;verticalAlign=top;align=center;strokeWidth=1;shape=mxgraph.floorplan.office_chair;shadow=0;rounded=0;comic=0;fontFamily=Verdana;fontSize=12;" parent="48ef80bc37b76060-46" vertex="1">
          <mxGeometry x="20" width="40" height="43" as="geometry" />
        </mxCell>
        <mxCell id="48ef80bc37b76060-2" value="" style="shape=rect;shadow=0;rounded=0;comic=0;fontFamily=Verdana;fontSize=12;align=center;html=1;" parent="48ef80bc37b76060-46" vertex="1">
          <mxGeometry y="20" width="80" height="50" as="geometry" />
        </mxCell>
        <mxCell id="48ef80bc37b76060-3" value="" style="verticalLabelPosition=bottom;html=1;verticalAlign=top;align=center;strokeWidth=1;shape=mxgraph.floorplan.workstation;shadow=0;flipV=1;rounded=0;comic=0;fontFamily=Verdana;fontSize=12;" parent="48ef80bc37b76060-46" vertex="1">
          <mxGeometry x="15" y="30" width="50" height="40" as="geometry" />
        </mxCell>
        <mxCell id="48ef80bc37b76060-55" value="" style="group;rotation=90;" parent="1" vertex="1" connectable="0">
          <mxGeometry x="398" y="947" width="80" height="70" as="geometry" />
        </mxCell>
        <mxCell id="48ef80bc37b76060-56" value="" style="verticalLabelPosition=bottom;html=1;verticalAlign=top;align=center;strokeWidth=1;shape=mxgraph.floorplan.office_chair;shadow=0;rounded=0;comic=0;fontFamily=Verdana;fontSize=12;rotation=90;" parent="48ef80bc37b76060-55" vertex="1">
          <mxGeometry x="34" y="14" width="40" height="43" as="geometry" />
        </mxCell>
        <mxCell id="48ef80bc37b76060-57" value="" style="shape=rect;shadow=0;rounded=0;comic=0;fontFamily=Verdana;fontSize=12;align=center;html=1;rotation=90;" parent="48ef80bc37b76060-55" vertex="1">
          <mxGeometry x="-10" y="10" width="80" height="50" as="geometry" />
        </mxCell>
        <mxCell id="48ef80bc37b76060-58" value="" style="verticalLabelPosition=bottom;html=1;verticalAlign=top;align=center;strokeWidth=1;shape=mxgraph.floorplan.workstation;shadow=0;flipV=1;rounded=0;comic=0;fontFamily=Verdana;fontSize=12;rotation=90;" parent="48ef80bc37b76060-55" vertex="1">
          <mxGeometry y="15" width="50" height="40" as="geometry" />
        </mxCell>
        <mxCell id="48ef80bc37b76060-72" value="" style="group;rotation=180;" parent="1" vertex="1" connectable="0">
          <mxGeometry x="2330" y="253" width="80" height="70" as="geometry" />
        </mxCell>
        <mxCell id="48ef80bc37b76060-73" value="" style="verticalLabelPosition=bottom;html=1;verticalAlign=top;align=center;strokeWidth=1;shape=mxgraph.floorplan.office_chair;shadow=0;rounded=0;comic=0;fontFamily=Verdana;fontSize=12;rotation=180;" parent="48ef80bc37b76060-72" vertex="1">
          <mxGeometry x="20" y="28" width="40" height="43" as="geometry" />
        </mxCell>
        <mxCell id="48ef80bc37b76060-74" value="" style="shape=rect;shadow=0;rounded=0;comic=0;fontFamily=Verdana;fontSize=12;align=center;html=1;rotation=180;" parent="48ef80bc37b76060-72" vertex="1">
          <mxGeometry width="80" height="50" as="geometry" />
        </mxCell>
        <mxCell id="48ef80bc37b76060-75" value="" style="verticalLabelPosition=bottom;html=1;verticalAlign=top;align=center;strokeWidth=1;shape=mxgraph.floorplan.workstation;shadow=0;flipV=1;rounded=0;comic=0;fontFamily=Verdana;fontSize=12;rotation=180;" parent="48ef80bc37b76060-72" vertex="1">
          <mxGeometry x="15" width="50" height="40" as="geometry" />
        </mxCell>
        <mxCell id="48ef80bc37b76060-114" value="" style="verticalLabelPosition=bottom;html=1;verticalAlign=top;align=center;strokeWidth=1;shape=mxgraph.floorplan.office_chair;shadow=0;rounded=0;comic=0;fontFamily=Verdana;fontSize=12;" parent="1" vertex="1">
          <mxGeometry x="1034" y="699" width="40" height="43" as="geometry" />
        </mxCell>
        <mxCell id="48ef80bc37b76060-115" value="" style="verticalLabelPosition=bottom;html=1;verticalAlign=top;align=center;strokeWidth=1;shape=mxgraph.floorplan.office_chair;shadow=0;direction=west;rounded=0;comic=0;fontFamily=Verdana;fontSize=12;" parent="1" vertex="1">
          <mxGeometry x="1034" y="796" width="40" height="43" as="geometry" />
        </mxCell>
        <mxCell id="48ef80bc37b76060-116" value="" style="verticalLabelPosition=bottom;html=1;verticalAlign=top;align=center;strokeWidth=1;shape=mxgraph.floorplan.office_chair;shadow=0;direction=north;rounded=0;comic=0;fontFamily=Verdana;fontSize=12;" parent="1" vertex="1">
          <mxGeometry x="984" y="749" width="43" height="40" as="geometry" />
        </mxCell>
        <mxCell id="48ef80bc37b76060-117" value="" style="verticalLabelPosition=bottom;html=1;verticalAlign=top;align=center;strokeWidth=1;shape=mxgraph.floorplan.office_chair;shadow=0;direction=south;rounded=0;comic=0;fontFamily=Verdana;fontSize=12;" parent="1" vertex="1">
          <mxGeometry x="1081" y="749" width="43" height="40" as="geometry" />
        </mxCell>
        <mxCell id="48ef80bc37b76060-118" value="" style="shape=rect;shadow=0;rounded=0;comic=0;fontFamily=Verdana;fontSize=12;align=center;html=1;" parent="1" vertex="1">
          <mxGeometry x="1004" y="719" width="100" height="100" as="geometry" />
        </mxCell>
        <mxCell id="48ef80bc37b76060-119" value="" style="verticalLabelPosition=bottom;html=1;verticalAlign=top;align=center;strokeWidth=1;shape=mxgraph.floorplan.office_chair;fillColor=#ffffff;strokeColor=#000000;shadow=0;rounded=0;comic=0;fontFamily=Verdana;fontSize=12;" parent="1" vertex="1">
          <mxGeometry x="1034" y="939" width="40" height="43" as="geometry" />
        </mxCell>
        <mxCell id="48ef80bc37b76060-120" value="" style="verticalLabelPosition=bottom;html=1;verticalAlign=top;align=center;strokeWidth=1;shape=mxgraph.floorplan.office_chair;fillColor=#ffffff;strokeColor=#000000;shadow=0;direction=west;rounded=0;comic=0;fontFamily=Verdana;fontSize=12;" parent="1" vertex="1">
          <mxGeometry x="1034" y="1036" width="40" height="43" as="geometry" />
        </mxCell>
        <mxCell id="48ef80bc37b76060-121" value="" style="verticalLabelPosition=bottom;html=1;verticalAlign=top;align=center;strokeWidth=1;shape=mxgraph.floorplan.office_chair;fillColor=#ffffff;strokeColor=#000000;shadow=0;direction=north;rounded=0;comic=0;fontFamily=Verdana;fontSize=12;" parent="1" vertex="1">
          <mxGeometry x="984" y="989" width="43" height="40" as="geometry" />
        </mxCell>
        <mxCell id="48ef80bc37b76060-122" value="" style="verticalLabelPosition=bottom;html=1;verticalAlign=top;align=center;strokeWidth=1;shape=mxgraph.floorplan.office_chair;fillColor=#ffffff;strokeColor=#000000;shadow=0;direction=south;rounded=0;comic=0;fontFamily=Verdana;fontSize=12;" parent="1" vertex="1">
          <mxGeometry x="1081" y="989" width="43" height="40" as="geometry" />
        </mxCell>
        <mxCell id="48ef80bc37b76060-123" value="" style="shape=rect;shadow=0;rounded=0;comic=0;fontFamily=Verdana;fontSize=12;align=center;html=1;" parent="1" vertex="1">
          <mxGeometry x="1004" y="959" width="100" height="100" as="geometry" />
        </mxCell>
        <mxCell id="48ef80bc37b76060-124" value="" style="verticalLabelPosition=bottom;html=1;verticalAlign=top;align=center;strokeWidth=1;shape=mxgraph.floorplan.doorRight;rounded=0;shadow=0;comic=0;fontFamily=Verdana;fontSize=12;" parent="1" vertex="1">
          <mxGeometry x="693" y="1250" width="80" height="85" as="geometry" />
        </mxCell>
        <mxCell id="48ef80bc37b76060-125" value="" style="verticalLabelPosition=bottom;html=1;verticalAlign=top;align=center;strokeWidth=1;shape=mxgraph.floorplan.doorLeft;rounded=0;shadow=0;comic=0;fontFamily=Verdana;fontSize=12;" parent="1" vertex="1">
          <mxGeometry x="796" y="1251" width="80" height="85" as="geometry" />
        </mxCell>
        <mxCell id="48ef80bc37b76060-126" value="" style="verticalLabelPosition=bottom;html=1;verticalAlign=top;align=center;strokeWidth=1;shape=mxgraph.floorplan.doorLeft;rounded=0;shadow=0;comic=0;fontFamily=Verdana;fontSize=12;" parent="1" vertex="1">
          <mxGeometry x="1244" y="1251" width="80" height="85" as="geometry" />
        </mxCell>
        <mxCell id="48ef80bc37b76060-127" value="" style="verticalLabelPosition=bottom;html=1;verticalAlign=top;align=center;strokeWidth=1;shape=mxgraph.floorplan.wallCorner;fillColor=#000000;rounded=0;shadow=0;comic=0;fontFamily=Verdana;fontSize=12;" parent="1" vertex="1">
          <mxGeometry x="393" y="243" width="100" height="385" as="geometry" />
        </mxCell>
        <mxCell id="48ef80bc37b76060-128" value="" style="verticalLabelPosition=bottom;html=1;verticalAlign=top;align=center;strokeWidth=1;shape=mxgraph.floorplan.wallU;fillColor=#000000;rounded=0;shadow=0;comic=0;fontFamily=Verdana;fontSize=12;rotation=90;" parent="1" vertex="1">
          <mxGeometry x="1021" y="-380" width="1210" height="2456" as="geometry" />
        </mxCell>
        <mxCell id="48ef80bc37b76060-130" value="" style="verticalLabelPosition=bottom;html=1;verticalAlign=top;align=center;strokeWidth=1;shape=mxgraph.floorplan.wallU;fillColor=#000000;rounded=0;shadow=0;comic=0;fontFamily=Verdana;fontSize=12;rotation=90;" parent="1" vertex="1">
          <mxGeometry x="789" y="702" width="481" height="335" as="geometry" />
        </mxCell>
        <mxCell id="48ef80bc37b76060-133" value="" style="verticalLabelPosition=bottom;html=1;verticalAlign=top;align=center;strokeWidth=1;shape=mxgraph.floorplan.wallCorner;fillColor=#000000;direction=south;rounded=0;shadow=0;comic=0;fontFamily=Verdana;fontSize=12;" parent="1" vertex="1">
          <mxGeometry x="2274" y="631" width="221" height="266" as="geometry" />
        </mxCell>
        <mxCell id="48ef80bc37b76060-134" value="" style="verticalLabelPosition=bottom;html=1;verticalAlign=top;align=center;strokeWidth=1;shape=mxgraph.floorplan.wallCorner;fillColor=#000000;direction=west;rounded=0;shadow=0;comic=0;fontFamily=Verdana;fontSize=12;" parent="1" vertex="1">
          <mxGeometry x="2053" y="893" width="442" height="142" as="geometry" />
        </mxCell>
        <mxCell id="48ef80bc37b76060-135" value="" style="verticalLabelPosition=bottom;html=1;verticalAlign=top;align=center;strokeWidth=1;shape=mxgraph.floorplan.wallCorner;fillColor=#000000;direction=north;rounded=0;shadow=0;comic=0;fontFamily=Verdana;fontSize=12;" parent="1" vertex="1">
          <mxGeometry x="1873" y="637" width="186" height="398" as="geometry" />
        </mxCell>
        <mxCell id="48ef80bc37b76060-136" value="" style="verticalLabelPosition=bottom;html=1;verticalAlign=top;align=center;strokeWidth=1;shape=mxgraph.floorplan.doorDouble;rounded=0;shadow=0;comic=0;fontFamily=Verdana;fontSize=12;rotation=-90;" parent="1" vertex="1">
          <mxGeometry x="358" y="666" width="160" height="85" as="geometry" />
        </mxCell>
        <mxCell id="48ef80bc37b76060-137" value="" style="verticalLabelPosition=bottom;html=1;verticalAlign=top;align=center;strokeWidth=1;shape=mxgraph.floorplan.wall;fillColor=#000000;rounded=0;shadow=0;comic=0;fontFamily=Verdana;fontSize=12;" parent="1" vertex="1">
          <mxGeometry x="394" y="1024" width="204" height="10" as="geometry" />
        </mxCell>
        <mxCell id="48ef80bc37b76060-138" value="" style="verticalLabelPosition=bottom;html=1;verticalAlign=top;align=center;strokeWidth=1;shape=mxgraph.floorplan.wall;fillColor=#000000;direction=south;rounded=0;shadow=0;comic=0;fontFamily=Verdana;fontSize=12;" parent="1" vertex="1">
          <mxGeometry x="593" y="912" width="10" height="246" as="geometry" />
        </mxCell>
        <mxCell id="48ef80bc37b76060-142" value="" style="verticalLabelPosition=bottom;html=1;verticalAlign=top;align=center;strokeWidth=1;shape=mxgraph.floorplan.wallCorner;fillColor=#000000;direction=south;rounded=0;shadow=0;comic=0;fontFamily=Verdana;fontSize=12;" parent="1" vertex="1">
          <mxGeometry x="398" y="814" width="205" height="17" as="geometry" />
        </mxCell>
        <mxCell id="48ef80bc37b76060-139" value="" style="verticalLabelPosition=bottom;html=1;verticalAlign=top;align=center;strokeWidth=1;shape=mxgraph.floorplan.doorLeft;rounded=0;shadow=0;comic=0;fontFamily=Verdana;fontSize=12;rotation=90;" parent="1" vertex="1">
          <mxGeometry x="517" y="829" width="80" height="85" as="geometry" />
        </mxCell>
        <mxCell id="48ef80bc37b76060-143" value="" style="verticalLabelPosition=bottom;html=1;verticalAlign=top;align=center;strokeWidth=1;shape=mxgraph.floorplan.dresser;rounded=0;shadow=0;comic=0;fontFamily=Verdana;fontSize=12;rotation=90;" parent="1" vertex="1">
          <mxGeometry x="510" y="941" width="100" height="65" as="geometry" />
        </mxCell>
        <mxCell id="48ef80bc37b76060-144" value="" style="verticalLabelPosition=bottom;html=1;verticalAlign=top;align=center;strokeWidth=1;shape=mxgraph.floorplan.plant;rounded=0;shadow=0;comic=0;fontFamily=Verdana;fontSize=12;" parent="1" vertex="1">
          <mxGeometry x="406" y="829" width="47" height="51" as="geometry" />
        </mxCell>
        <mxCell id="48ef80bc37b76060-145" value="" style="group;rotation=90;" parent="1" vertex="1" connectable="0">
          <mxGeometry x="399" y="1040" width="80" height="70" as="geometry" />
        </mxCell>
        <mxCell id="48ef80bc37b76060-146" value="" style="verticalLabelPosition=bottom;html=1;verticalAlign=top;align=center;strokeWidth=1;shape=mxgraph.floorplan.office_chair;shadow=0;rounded=0;comic=0;fontFamily=Verdana;fontSize=12;rotation=90;" parent="48ef80bc37b76060-145" vertex="1">
          <mxGeometry x="34" y="14" width="40" height="43" as="geometry" />
        </mxCell>
        <mxCell id="48ef80bc37b76060-147" value="" style="shape=rect;shadow=0;rounded=0;comic=0;fontFamily=Verdana;fontSize=12;align=center;html=1;rotation=90;" parent="48ef80bc37b76060-145" vertex="1">
          <mxGeometry x="-10" y="10" width="80" height="50" as="geometry" />
        </mxCell>
        <mxCell id="48ef80bc37b76060-148" value="" style="verticalLabelPosition=bottom;html=1;verticalAlign=top;align=center;strokeWidth=1;shape=mxgraph.floorplan.workstation;shadow=0;flipV=1;rounded=0;comic=0;fontFamily=Verdana;fontSize=12;rotation=90;" parent="48ef80bc37b76060-145" vertex="1">
          <mxGeometry y="15" width="50" height="40" as="geometry" />
        </mxCell>
        <mxCell id="48ef80bc37b76060-149" value="" style="verticalLabelPosition=bottom;html=1;verticalAlign=top;align=center;strokeWidth=1;shape=mxgraph.floorplan.wall;fillColor=#000000;rounded=0;shadow=0;comic=0;fontFamily=Verdana;fontSize=12;" parent="1" vertex="1">
          <mxGeometry x="394" y="1248" width="299" height="10" as="geometry" />
        </mxCell>
        <mxCell id="48ef80bc37b76060-150" value="" style="verticalLabelPosition=bottom;html=1;verticalAlign=top;align=center;strokeWidth=1;shape=mxgraph.floorplan.wall;fillColor=#000000;direction=south;rounded=0;shadow=0;comic=0;fontFamily=Verdana;fontSize=12;" parent="1" vertex="1">
          <mxGeometry x="593" y="1239" width="10" height="18" as="geometry" />
        </mxCell>
        <mxCell id="48ef80bc37b76060-151" value="" style="verticalLabelPosition=bottom;html=1;verticalAlign=top;align=center;strokeWidth=1;shape=mxgraph.floorplan.doorLeft;rounded=0;shadow=0;comic=0;fontFamily=Verdana;fontSize=12;rotation=90;flipV=0;flipH=1;" parent="1" vertex="1">
          <mxGeometry x="517" y="1156" width="80" height="85" as="geometry" />
        </mxCell>
        <mxCell id="48ef80bc37b76060-152" value="" style="verticalLabelPosition=bottom;html=1;verticalAlign=top;align=center;strokeWidth=1;shape=mxgraph.floorplan.dresser;rounded=0;shadow=0;comic=0;fontFamily=Verdana;fontSize=12;rotation=90;" parent="1" vertex="1">
          <mxGeometry x="510" y="1051" width="100" height="65" as="geometry" />
        </mxCell>
        <mxCell id="48ef80bc37b76060-153" value="" style="verticalLabelPosition=bottom;html=1;verticalAlign=top;align=center;strokeWidth=1;shape=mxgraph.floorplan.plant;rounded=0;shadow=0;comic=0;fontFamily=Verdana;fontSize=12;" parent="1" vertex="1">
          <mxGeometry x="409" y="1190" width="47" height="51" as="geometry" />
        </mxCell>
        <mxCell id="48ef80bc37b76060-50" value="" style="verticalLabelPosition=bottom;html=1;verticalAlign=top;align=center;strokeWidth=1;shape=mxgraph.floorplan.workstation;shadow=0;flipV=1;rounded=0;comic=0;fontFamily=Verdana;fontSize=12;" parent="1" vertex="1">
          <mxGeometry x="488" y="1402" width="50" height="40" as="geometry" />
        </mxCell>
        <mxCell id="48ef80bc37b76060-154" value="" style="verticalLabelPosition=bottom;html=1;verticalAlign=top;align=center;strokeWidth=1;shape=mxgraph.floorplan.flat_tv;rounded=0;shadow=0;comic=0;fontFamily=Verdana;fontSize=12;rotation=-165;" parent="1" vertex="1">
          <mxGeometry x="413" y="1425" width="70" height="10" as="geometry" />
        </mxCell>
        <mxCell id="48ef80bc37b76060-155" value="" style="verticalLabelPosition=bottom;html=1;verticalAlign=top;align=center;strokeWidth=1;shape=mxgraph.floorplan.flat_tv;rounded=0;shadow=0;comic=0;fontFamily=Verdana;fontSize=12;rotation=160;" parent="1" vertex="1">
          <mxGeometry x="544" y="1425" width="70" height="10" as="geometry" />
        </mxCell>
        <mxCell id="48ef80bc37b76060-156" value="" style="verticalLabelPosition=bottom;html=1;verticalAlign=top;align=center;strokeWidth=1;shape=mxgraph.floorplan.wall;fillColor=#000000;direction=south;rounded=0;shadow=0;comic=0;fontFamily=Verdana;fontSize=12;" parent="1" vertex="1">
          <mxGeometry x="393" y="789" width="10" height="664" as="geometry" />
        </mxCell>
        <mxCell id="48ef80bc37b76060-157" value="" style="verticalLabelPosition=bottom;html=1;verticalAlign=top;align=center;strokeWidth=1;shape=mxgraph.floorplan.wall;fillColor=#000000;direction=south;rounded=0;shadow=0;comic=0;fontFamily=Verdana;fontSize=12;" parent="1" vertex="1">
          <mxGeometry x="780" y="1257" width="10" height="191" as="geometry" />
        </mxCell>
        <mxCell id="48ef80bc37b76060-158" value="" style="verticalLabelPosition=bottom;html=1;verticalAlign=top;align=center;strokeWidth=1;shape=mxgraph.floorplan.wall;fillColor=#000000;rounded=0;shadow=0;comic=0;fontFamily=Verdana;fontSize=12;" parent="1" vertex="1">
          <mxGeometry x="774" y="1248" width="22" height="10" as="geometry" />
        </mxCell>
        <mxCell id="48ef80bc37b76060-159" value="" style="verticalLabelPosition=bottom;html=1;verticalAlign=top;align=center;strokeWidth=1;shape=mxgraph.floorplan.dresser;rounded=0;shadow=0;comic=0;fontFamily=Verdana;fontSize=12;flipV=1;rotation=90;" parent="1" vertex="1">
          <mxGeometry x="386" y="1276" width="100" height="65" as="geometry" />
        </mxCell>
        <mxCell id="48ef80bc37b76060-160" value="" style="verticalLabelPosition=bottom;html=1;verticalAlign=top;align=center;strokeWidth=1;shape=mxgraph.floorplan.plant;rounded=0;shadow=0;comic=0;fontFamily=Verdana;fontSize=12;" parent="1" vertex="1">
          <mxGeometry x="723" y="1389" width="47" height="51" as="geometry" />
        </mxCell>
        <mxCell id="48ef80bc37b76060-161" value="" style="verticalLabelPosition=bottom;html=1;verticalAlign=top;align=center;strokeWidth=1;shape=mxgraph.floorplan.plant;rounded=0;shadow=0;comic=0;fontFamily=Verdana;fontSize=12;" parent="1" vertex="1">
          <mxGeometry x="796" y="1387" width="47" height="51" as="geometry" />
        </mxCell>
        <mxCell id="48ef80bc37b76060-162" value="" style="verticalLabelPosition=bottom;html=1;verticalAlign=top;align=center;strokeWidth=1;shape=mxgraph.floorplan.wall;fillColor=#000000;direction=south;rounded=0;shadow=0;comic=0;fontFamily=Verdana;fontSize=12;" parent="1" vertex="1">
          <mxGeometry x="1003" y="1257" width="10" height="191" as="geometry" />
        </mxCell>
        <mxCell id="48ef80bc37b76060-163" value="" style="verticalLabelPosition=bottom;html=1;verticalAlign=top;align=center;strokeWidth=1;shape=mxgraph.floorplan.wall;fillColor=#000000;rounded=0;shadow=0;comic=0;fontFamily=Verdana;fontSize=12;" parent="1" vertex="1">
          <mxGeometry x="876" y="1248" width="144" height="10" as="geometry" />
        </mxCell>
        <mxCell id="48ef80bc37b76060-164" value="" style="verticalLabelPosition=bottom;html=1;verticalAlign=top;align=center;strokeWidth=1;shape=mxgraph.floorplan.doorLeft;rounded=0;shadow=0;comic=0;fontFamily=Verdana;fontSize=12;" parent="1" vertex="1">
          <mxGeometry x="1020" y="1251" width="80" height="85" as="geometry" />
        </mxCell>
        <mxCell id="48ef80bc37b76060-165" value="" style="group" parent="1" vertex="1" connectable="0">
          <mxGeometry x="1143" y="1373" width="80" height="70" as="geometry" />
        </mxCell>
        <mxCell id="48ef80bc37b76060-4" value="" style="verticalLabelPosition=bottom;html=1;verticalAlign=top;align=center;strokeWidth=1;shape=mxgraph.floorplan.office_chair;shadow=0;rounded=0;comic=0;fontFamily=Verdana;fontSize=12;" parent="48ef80bc37b76060-165" vertex="1">
          <mxGeometry x="20" width="40" height="43" as="geometry" />
        </mxCell>
        <mxCell id="48ef80bc37b76060-5" value="" style="shape=rect;shadow=0;rounded=0;comic=0;fontFamily=Verdana;fontSize=12;align=center;html=1;" parent="48ef80bc37b76060-165" vertex="1">
          <mxGeometry y="20" width="80" height="50" as="geometry" />
        </mxCell>
        <mxCell id="48ef80bc37b76060-6" value="" style="verticalLabelPosition=bottom;html=1;verticalAlign=top;align=center;strokeWidth=1;shape=mxgraph.floorplan.workstation;shadow=0;flipV=1;rounded=0;comic=0;fontFamily=Verdana;fontSize=12;" parent="48ef80bc37b76060-165" vertex="1">
          <mxGeometry x="15" y="30" width="50" height="40" as="geometry" />
        </mxCell>
        <mxCell id="48ef80bc37b76060-166" value="" style="verticalLabelPosition=bottom;html=1;verticalAlign=top;align=center;strokeWidth=1;shape=mxgraph.floorplan.plant;rounded=0;shadow=0;comic=0;fontFamily=Verdana;fontSize=12;" parent="1" vertex="1">
          <mxGeometry x="1019" y="1387" width="47" height="51" as="geometry" />
        </mxCell>
        <mxCell id="48ef80bc37b76060-169" value="" style="verticalLabelPosition=bottom;html=1;verticalAlign=top;align=center;strokeWidth=1;shape=mxgraph.floorplan.wall;fillColor=#000000;direction=south;rounded=0;shadow=0;comic=0;fontFamily=Verdana;fontSize=12;" parent="1" vertex="1">
          <mxGeometry x="1228" y="1258" width="10" height="191" as="geometry" />
        </mxCell>
        <mxCell id="48ef80bc37b76060-170" value="" style="verticalLabelPosition=bottom;html=1;verticalAlign=top;align=center;strokeWidth=1;shape=mxgraph.floorplan.wall;fillColor=#000000;rounded=0;shadow=0;comic=0;fontFamily=Verdana;fontSize=12;" parent="1" vertex="1">
          <mxGeometry x="1100" y="1248" width="144" height="10" as="geometry" />
        </mxCell>
        <mxCell id="48ef80bc37b76060-171" value="" style="verticalLabelPosition=bottom;html=1;verticalAlign=top;align=center;strokeWidth=1;shape=mxgraph.floorplan.wall;fillColor=#000000;rounded=0;shadow=0;comic=0;fontFamily=Verdana;fontSize=12;" parent="1" vertex="1">
          <mxGeometry x="1324" y="1248" width="129" height="10" as="geometry" />
        </mxCell>
        <mxCell id="48ef80bc37b76060-174" value="" style="verticalLabelPosition=bottom;html=1;verticalAlign=top;align=center;strokeWidth=1;shape=mxgraph.floorplan.plant;rounded=0;shadow=0;comic=0;fontFamily=Verdana;fontSize=12;" parent="1" vertex="1">
          <mxGeometry x="1244" y="1392" width="47" height="51" as="geometry" />
        </mxCell>
        <mxCell id="48ef80bc37b76060-175" value="" style="verticalLabelPosition=bottom;html=1;verticalAlign=top;align=center;strokeWidth=1;shape=mxgraph.floorplan.dresser;rounded=0;shadow=0;comic=0;fontFamily=Verdana;fontSize=12;rotation=0;" parent="1" vertex="1">
          <mxGeometry x="903" y="1258" width="100" height="65" as="geometry" />
        </mxCell>
        <mxCell id="48ef80bc37b76060-176" value="" style="verticalLabelPosition=bottom;html=1;verticalAlign=top;align=center;strokeWidth=1;shape=mxgraph.floorplan.dresser;rounded=0;shadow=0;comic=0;fontFamily=Verdana;fontSize=12;rotation=0;" parent="1" vertex="1">
          <mxGeometry x="1127" y="1258" width="100" height="65" as="geometry" />
        </mxCell>
        <mxCell id="48ef80bc37b76060-177" value="" style="verticalLabelPosition=bottom;html=1;verticalAlign=top;align=center;strokeWidth=1;shape=mxgraph.floorplan.dresser;rounded=0;shadow=0;comic=0;fontFamily=Verdana;fontSize=12;rotation=0;" parent="1" vertex="1">
          <mxGeometry x="1353" y="1258" width="100" height="65" as="geometry" />
        </mxCell>
        <mxCell id="48ef80bc37b76060-178" value="" style="verticalLabelPosition=bottom;html=1;verticalAlign=top;align=center;strokeWidth=1;shape=mxgraph.floorplan.wallCorner;fillColor=#000000;rounded=0;shadow=0;comic=0;fontFamily=Verdana;fontSize=12;" parent="1" vertex="1">
          <mxGeometry x="1452" y="1197" width="21" height="250" as="geometry" />
        </mxCell>
        <mxCell id="48ef80bc37b76060-179" value="" style="verticalLabelPosition=bottom;html=1;verticalAlign=top;align=center;strokeWidth=1;shape=mxgraph.floorplan.wallCorner;fillColor=#000000;direction=south;rounded=0;shadow=0;comic=0;fontFamily=Verdana;fontSize=12;" parent="1" vertex="1">
          <mxGeometry x="1633" y="1197" width="330" height="254" as="geometry" />
        </mxCell>
        <mxCell id="48ef80bc37b76060-180" value="" style="verticalLabelPosition=bottom;html=1;verticalAlign=top;align=center;strokeWidth=1;shape=mxgraph.floorplan.doorDouble;rounded=0;shadow=0;comic=0;fontFamily=Verdana;fontSize=12;" parent="1" vertex="1">
          <mxGeometry x="1473" y="1200" width="160" height="85" as="geometry" />
        </mxCell>
        <mxCell id="48ef80bc37b76060-181" value="" style="verticalLabelPosition=bottom;html=1;verticalAlign=top;align=center;strokeWidth=1;shape=mxgraph.floorplan.plant;rounded=0;shadow=0;comic=0;fillColor=#FFFFFF;fontFamily=Verdana;fontSize=12;" parent="1" vertex="1">
          <mxGeometry x="1473" y="1380" width="47" height="51" as="geometry" />
        </mxCell>
        <mxCell id="48ef80bc37b76060-182" value="" style="verticalLabelPosition=bottom;html=1;verticalAlign=top;align=center;strokeWidth=1;shape=mxgraph.floorplan.plant;rounded=0;shadow=0;comic=0;fontFamily=Verdana;fontSize=12;" parent="1" vertex="1">
          <mxGeometry x="1892" y="1211" width="47" height="51" as="geometry" />
        </mxCell>
        <mxCell id="48ef80bc37b76060-183" value="" style="verticalLabelPosition=bottom;html=1;verticalAlign=top;align=center;strokeWidth=1;shape=mxgraph.floorplan.plant;rounded=0;shadow=0;comic=0;fontFamily=Verdana;fontSize=12;" parent="1" vertex="1">
          <mxGeometry x="1893" y="1387" width="47" height="51" as="geometry" />
        </mxCell>
        <mxCell id="48ef80bc37b76060-184" value="" style="verticalLabelPosition=bottom;html=1;verticalAlign=top;align=center;strokeWidth=1;shape=mxgraph.floorplan.window;rounded=0;shadow=0;comic=0;fontFamily=Verdana;fontSize=12;" parent="1" vertex="1">
          <mxGeometry x="1653" y="1197" width="120" height="10" as="geometry" />
        </mxCell>
        <mxCell id="48ef80bc37b76060-185" value="" style="verticalLabelPosition=bottom;html=1;verticalAlign=top;align=center;strokeWidth=1;shape=mxgraph.floorplan.window;rounded=0;shadow=0;comic=0;fontFamily=Verdana;fontSize=12;" parent="1" vertex="1">
          <mxGeometry x="1793" y="1197" width="110" height="10" as="geometry" />
        </mxCell>
        <mxCell id="48ef80bc37b76060-186" value="" style="verticalLabelPosition=bottom;html=1;verticalAlign=top;align=center;strokeWidth=1;shape=mxgraph.floorplan.wall;fillColor=#000000;rounded=0;shadow=0;comic=0;fontFamily=Verdana;fontSize=12;" parent="1" vertex="1">
          <mxGeometry x="1963" y="1248" width="10" height="10" as="geometry" />
        </mxCell>
        <mxCell id="48ef80bc37b76060-187" value="" style="verticalLabelPosition=bottom;html=1;verticalAlign=top;align=center;strokeWidth=1;shape=mxgraph.floorplan.doorLeft;rounded=0;shadow=0;comic=0;fontFamily=Verdana;fontSize=12;" parent="1" vertex="1">
          <mxGeometry x="1973" y="1251" width="80" height="85" as="geometry" />
        </mxCell>
        <mxCell id="48ef80bc37b76060-188" value="" style="verticalLabelPosition=bottom;html=1;verticalAlign=top;align=center;strokeWidth=1;shape=mxgraph.floorplan.wall;fillColor=#000000;rounded=0;shadow=0;comic=0;fontFamily=Verdana;fontSize=12;" parent="1" vertex="1">
          <mxGeometry x="2053" y="1248" width="270" height="10" as="geometry" />
        </mxCell>
        <mxCell id="48ef80bc37b76060-189" value="" style="verticalLabelPosition=bottom;html=1;verticalAlign=top;align=center;strokeWidth=1;shape=mxgraph.floorplan.wall;fillColor=#000000;direction=south;rounded=0;shadow=0;comic=0;fontFamily=Verdana;fontSize=12;" parent="1" vertex="1">
          <mxGeometry x="2308" y="1258" width="10" height="191" as="geometry" />
        </mxCell>
        <mxCell id="48ef80bc37b76060-190" value="" style="group;rotation=-90;" parent="1" vertex="1" connectable="0">
          <mxGeometry x="2232" y="1284" width="110" height="70" as="geometry" />
        </mxCell>
        <mxCell id="48ef80bc37b76060-21" value="" style="verticalLabelPosition=bottom;html=1;verticalAlign=top;align=center;strokeWidth=1;shape=mxgraph.floorplan.office_chair;shadow=0;rounded=0;comic=0;fontFamily=Verdana;fontSize=12;rotation=-90;" parent="48ef80bc37b76060-190" vertex="1">
          <mxGeometry x="7" y="14" width="40" height="43" as="geometry" />
        </mxCell>
        <mxCell id="48ef80bc37b76060-22" value="" style="shape=rect;shadow=0;rounded=0;comic=0;fontFamily=Verdana;fontSize=12;align=center;html=1;rotation=-90;" parent="48ef80bc37b76060-190" vertex="1">
          <mxGeometry x="-10" y="10" width="120" height="50" as="geometry" />
        </mxCell>
        <mxCell id="48ef80bc37b76060-23" value="" style="verticalLabelPosition=bottom;html=1;verticalAlign=top;align=center;strokeWidth=1;shape=mxgraph.floorplan.workstation;shadow=0;flipV=1;rounded=0;comic=0;fontFamily=Verdana;fontSize=12;rotation=-90;" parent="48ef80bc37b76060-190" vertex="1">
          <mxGeometry x="30" y="15" width="50" height="40" as="geometry" />
        </mxCell>
        <mxCell id="48ef80bc37b76060-191" value="" style="verticalLabelPosition=bottom;html=1;verticalAlign=top;align=center;strokeWidth=1;shape=mxgraph.floorplan.office_chair;shadow=0;rounded=0;comic=0;fontFamily=Verdana;fontSize=12;" parent="1" vertex="1">
          <mxGeometry x="2098" y="1322" width="40" height="43" as="geometry" />
        </mxCell>
        <mxCell id="48ef80bc37b76060-193" value="" style="verticalLabelPosition=bottom;html=1;verticalAlign=top;align=center;strokeWidth=1;shape=mxgraph.floorplan.office_chair;shadow=0;direction=north;rounded=0;comic=0;fontFamily=Verdana;fontSize=12;" parent="1" vertex="1">
          <mxGeometry x="2048" y="1372" width="43" height="40" as="geometry" />
        </mxCell>
        <mxCell id="48ef80bc37b76060-194" value="" style="verticalLabelPosition=bottom;html=1;verticalAlign=top;align=center;strokeWidth=1;shape=mxgraph.floorplan.office_chair;shadow=0;direction=south;rounded=0;comic=0;fontFamily=Verdana;fontSize=12;" parent="1" vertex="1">
          <mxGeometry x="2145" y="1372" width="43" height="40" as="geometry" />
        </mxCell>
        <mxCell id="48ef80bc37b76060-195" value="" style="shape=rect;shadow=0;rounded=0;comic=0;fontFamily=Verdana;fontSize=12;align=center;html=1;" parent="1" vertex="1">
          <mxGeometry x="2068" y="1342" width="100" height="100" as="geometry" />
        </mxCell>
        <mxCell id="48ef80bc37b76060-196" value="" style="verticalLabelPosition=bottom;html=1;verticalAlign=top;align=center;strokeWidth=1;shape=mxgraph.floorplan.plant;rounded=0;shadow=0;comic=0;fontFamily=Verdana;fontSize=12;" parent="1" vertex="1">
          <mxGeometry x="1968" y="1390" width="47" height="51" as="geometry" />
        </mxCell>
        <mxCell id="48ef80bc37b76060-197" value="" style="verticalLabelPosition=bottom;html=1;verticalAlign=top;align=center;strokeWidth=1;shape=mxgraph.floorplan.plant;rounded=0;shadow=0;comic=0;fillColor=#FFFFFF;fontFamily=Verdana;fontSize=12;" parent="1" vertex="1">
          <mxGeometry x="2256" y="1388" width="47" height="51" as="geometry" />
        </mxCell>
        <mxCell id="48ef80bc37b76060-198" value="" style="group" parent="1" vertex="1" connectable="0">
          <mxGeometry x="2443" y="1372" width="80" height="70" as="geometry" />
        </mxCell>
        <mxCell id="48ef80bc37b76060-199" value="" style="verticalLabelPosition=bottom;html=1;verticalAlign=top;align=center;strokeWidth=1;shape=mxgraph.floorplan.office_chair;shadow=0;rounded=0;comic=0;fontFamily=Verdana;fontSize=12;" parent="48ef80bc37b76060-198" vertex="1">
          <mxGeometry x="20" width="40" height="43" as="geometry" />
        </mxCell>
        <mxCell id="48ef80bc37b76060-200" value="" style="shape=rect;shadow=0;rounded=0;comic=0;fontFamily=Verdana;fontSize=12;align=center;html=1;" parent="48ef80bc37b76060-198" vertex="1">
          <mxGeometry y="20" width="80" height="50" as="geometry" />
        </mxCell>
        <mxCell id="48ef80bc37b76060-201" value="" style="verticalLabelPosition=bottom;html=1;verticalAlign=top;align=center;strokeWidth=1;shape=mxgraph.floorplan.workstation;shadow=0;flipV=1;rounded=0;comic=0;fontFamily=Verdana;fontSize=12;" parent="48ef80bc37b76060-198" vertex="1">
          <mxGeometry x="15" y="30" width="50" height="40" as="geometry" />
        </mxCell>
        <mxCell id="48ef80bc37b76060-202" value="" style="verticalLabelPosition=bottom;html=1;verticalAlign=top;align=center;strokeWidth=1;shape=mxgraph.floorplan.doorLeft;rounded=0;shadow=0;comic=0;fontFamily=Verdana;fontSize=12;" parent="1" vertex="1">
          <mxGeometry x="2323" y="1251" width="80" height="85" as="geometry" />
        </mxCell>
        <mxCell id="48ef80bc37b76060-203" value="" style="verticalLabelPosition=bottom;html=1;verticalAlign=top;align=center;strokeWidth=1;shape=mxgraph.floorplan.plant;rounded=0;shadow=0;comic=0;fontFamily=Verdana;fontSize=12;" parent="1" vertex="1">
          <mxGeometry x="2323" y="1387" width="47" height="51" as="geometry" />
        </mxCell>
        <mxCell id="48ef80bc37b76060-204" value="" style="verticalLabelPosition=bottom;html=1;verticalAlign=top;align=center;strokeWidth=1;shape=mxgraph.floorplan.wall;fillColor=#000000;direction=south;rounded=0;shadow=0;comic=0;fontFamily=Verdana;fontSize=12;" parent="1" vertex="1">
          <mxGeometry x="2530" y="1257" width="10" height="191" as="geometry" />
        </mxCell>
        <mxCell id="48ef80bc37b76060-205" value="" style="verticalLabelPosition=bottom;html=1;verticalAlign=top;align=center;strokeWidth=1;shape=mxgraph.floorplan.wall;fillColor=#000000;rounded=0;shadow=0;comic=0;fontFamily=Verdana;fontSize=12;" parent="1" vertex="1">
          <mxGeometry x="2403" y="1248" width="144" height="10" as="geometry" />
        </mxCell>
        <mxCell id="48ef80bc37b76060-206" value="" style="verticalLabelPosition=bottom;html=1;verticalAlign=top;align=center;strokeWidth=1;shape=mxgraph.floorplan.doorLeft;rounded=0;shadow=0;comic=0;fontFamily=Verdana;fontSize=12;" parent="1" vertex="1">
          <mxGeometry x="2547" y="1251" width="80" height="85" as="geometry" />
        </mxCell>
        <mxCell id="48ef80bc37b76060-211" value="" style="verticalLabelPosition=bottom;html=1;verticalAlign=top;align=center;strokeWidth=1;shape=mxgraph.floorplan.plant;rounded=0;shadow=0;comic=0;fontFamily=Verdana;fontSize=12;" parent="1" vertex="1">
          <mxGeometry x="2546" y="1387" width="47" height="51" as="geometry" />
        </mxCell>
        <mxCell id="48ef80bc37b76060-213" value="" style="verticalLabelPosition=bottom;html=1;verticalAlign=top;align=center;strokeWidth=1;shape=mxgraph.floorplan.dresser;rounded=0;shadow=0;comic=0;fontFamily=Verdana;fontSize=12;rotation=0;" parent="1" vertex="1">
          <mxGeometry x="2430" y="1258" width="100" height="65" as="geometry" />
        </mxCell>
        <mxCell id="48ef80bc37b76060-214" value="" style="verticalLabelPosition=bottom;html=1;verticalAlign=top;align=center;strokeWidth=1;shape=mxgraph.floorplan.dresser;rounded=0;shadow=0;comic=0;fontFamily=Verdana;fontSize=12;rotation=0;" parent="1" vertex="1">
          <mxGeometry x="2654" y="1258" width="100" height="65" as="geometry" />
        </mxCell>
        <mxCell id="48ef80bc37b76060-215" value="" style="verticalLabelPosition=bottom;html=1;verticalAlign=top;align=center;strokeWidth=1;shape=mxgraph.floorplan.wall;fillColor=#000000;rounded=0;shadow=0;comic=0;fontFamily=Verdana;fontSize=12;" parent="1" vertex="1">
          <mxGeometry x="2648" y="1023" width="204" height="10" as="geometry" />
        </mxCell>
        <mxCell id="48ef80bc37b76060-216" value="" style="verticalLabelPosition=bottom;html=1;verticalAlign=top;align=center;strokeWidth=1;shape=mxgraph.floorplan.wall;fillColor=#000000;direction=south;rounded=0;shadow=0;comic=0;fontFamily=Verdana;fontSize=12;" parent="1" vertex="1">
          <mxGeometry x="2638" y="1017" width="10" height="139" as="geometry" />
        </mxCell>
        <mxCell id="48ef80bc37b76060-217" value="" style="verticalLabelPosition=bottom;html=1;verticalAlign=top;align=center;strokeWidth=1;shape=mxgraph.floorplan.wall;fillColor=#000000;rounded=0;shadow=0;comic=0;fontFamily=Verdana;fontSize=12;" parent="1" vertex="1">
          <mxGeometry x="2627" y="1248" width="216" height="10" as="geometry" />
        </mxCell>
        <mxCell id="48ef80bc37b76060-208" value="" style="verticalLabelPosition=bottom;html=1;verticalAlign=top;align=center;strokeWidth=1;shape=mxgraph.floorplan.office_chair;shadow=0;rounded=0;comic=0;fontFamily=Verdana;fontSize=12;rotation=-90;" parent="1" vertex="1">
          <mxGeometry x="2776" y="1359" width="40" height="43" as="geometry" />
        </mxCell>
        <mxCell id="48ef80bc37b76060-209" value="" style="shape=rect;shadow=0;rounded=0;comic=0;fontFamily=Verdana;fontSize=12;align=center;html=1;rotation=-90;" parent="1" vertex="1">
          <mxGeometry x="2757" y="1355" width="124" height="50" as="geometry" />
        </mxCell>
        <mxCell id="48ef80bc37b76060-210" value="" style="verticalLabelPosition=bottom;html=1;verticalAlign=top;align=center;strokeWidth=1;shape=mxgraph.floorplan.workstation;shadow=0;flipV=1;rounded=0;comic=0;fontFamily=Verdana;fontSize=12;rotation=-90;" parent="1" vertex="1">
          <mxGeometry x="2799" y="1360" width="50" height="40" as="geometry" />
        </mxCell>
        <mxCell id="48ef80bc37b76060-219" value="" style="verticalLabelPosition=bottom;html=1;verticalAlign=top;align=center;strokeWidth=1;shape=mxgraph.floorplan.plant;rounded=0;shadow=0;comic=0;fontFamily=Verdana;fontSize=12;" parent="1" vertex="1">
          <mxGeometry x="2783" y="1262" width="47" height="51" as="geometry" />
        </mxCell>
        <mxCell id="48ef80bc37b76060-221" value="" style="verticalLabelPosition=bottom;html=1;verticalAlign=top;align=center;strokeWidth=1;shape=mxgraph.floorplan.wall;fillColor=#000000;direction=south;rounded=0;shadow=0;comic=0;fontFamily=Verdana;fontSize=12;" parent="1" vertex="1">
          <mxGeometry x="2638" y="1237" width="10" height="20" as="geometry" />
        </mxCell>
        <mxCell id="48ef80bc37b76060-222" value="" style="group" parent="1" vertex="1" connectable="0">
          <mxGeometry x="2768" y="1039" width="80" height="70" as="geometry" />
        </mxCell>
        <mxCell id="48ef80bc37b76060-33" value="" style="group;rotation=-90;" parent="48ef80bc37b76060-222" vertex="1" connectable="0">
          <mxGeometry width="80" height="70" as="geometry" />
        </mxCell>
        <mxCell id="48ef80bc37b76060-30" value="" style="verticalLabelPosition=bottom;html=1;verticalAlign=top;align=center;strokeWidth=1;shape=mxgraph.floorplan.office_chair;fillColor=#ffffff;strokeColor=#000000;shadow=0;rounded=0;comic=0;fontFamily=Verdana;fontSize=12;rotation=-90;" parent="48ef80bc37b76060-33" vertex="1">
          <mxGeometry x="7" y="14" width="40" height="43" as="geometry" />
        </mxCell>
        <mxCell id="48ef80bc37b76060-31" value="" style="shape=rect;fillColor=#ffffff;strokeColor=#000000;shadow=0;rounded=0;comic=0;fontFamily=Verdana;fontSize=12;align=center;html=1;rotation=-90;" parent="48ef80bc37b76060-33" vertex="1">
          <mxGeometry x="10" y="10" width="80" height="50" as="geometry" />
        </mxCell>
        <mxCell id="48ef80bc37b76060-32" value="" style="verticalLabelPosition=bottom;html=1;verticalAlign=top;align=center;strokeWidth=1;shape=mxgraph.floorplan.workstation;fillColor=#ffffff;strokeColor=#000000;shadow=0;flipV=1;rounded=0;comic=0;fontFamily=Verdana;fontSize=12;rotation=-90;" parent="48ef80bc37b76060-33" vertex="1">
          <mxGeometry x="30" y="15" width="50" height="40" as="geometry" />
        </mxCell>
        <mxCell id="48ef80bc37b76060-223" value="" style="verticalLabelPosition=bottom;html=1;verticalAlign=top;align=center;strokeWidth=1;shape=mxgraph.floorplan.doorLeft;rounded=0;shadow=0;comic=0;fontFamily=Verdana;fontSize=12;rotation=90;flipV=1;flipH=1;" parent="1" vertex="1">
          <mxGeometry x="2643" y="1154" width="80" height="85" as="geometry" />
        </mxCell>
        <mxCell id="48ef80bc37b76060-226" value="" style="verticalLabelPosition=bottom;html=1;verticalAlign=top;align=center;strokeWidth=1;shape=mxgraph.floorplan.plant;rounded=0;shadow=0;comic=0;fontFamily=Verdana;fontSize=12;" parent="1" vertex="1">
          <mxGeometry x="2793" y="1188" width="47" height="51" as="geometry" />
        </mxCell>
        <mxCell id="48ef80bc37b76060-227" value="" style="verticalLabelPosition=bottom;html=1;verticalAlign=top;align=center;strokeWidth=1;shape=mxgraph.floorplan.dresser;rounded=0;shadow=0;comic=0;fontFamily=Verdana;fontSize=12;rotation=-90;" parent="1" vertex="1">
          <mxGeometry x="2631" y="1051" width="100" height="65" as="geometry" />
        </mxCell>
        <mxCell id="48ef80bc37b76060-228" value="" style="verticalLabelPosition=bottom;html=1;verticalAlign=top;align=center;strokeWidth=1;shape=mxgraph.floorplan.wall;fillColor=#000000;rounded=0;shadow=0;comic=0;fontFamily=Verdana;fontSize=12;" parent="1" vertex="1">
          <mxGeometry x="2648" y="803" width="204" height="10" as="geometry" />
        </mxCell>
        <mxCell id="48ef80bc37b76060-229" value="" style="verticalLabelPosition=bottom;html=1;verticalAlign=top;align=center;strokeWidth=1;shape=mxgraph.floorplan.wall;fillColor=#000000;direction=south;rounded=0;shadow=0;comic=0;fontFamily=Verdana;fontSize=12;" parent="1" vertex="1">
          <mxGeometry x="2638" y="797" width="10" height="139" as="geometry" />
        </mxCell>
        <mxCell id="48ef80bc37b76060-230" value="" style="group" parent="1" vertex="1" connectable="0">
          <mxGeometry x="2768" y="819" width="80" height="70" as="geometry" />
        </mxCell>
        <mxCell id="48ef80bc37b76060-231" value="" style="group;rotation=-90;" parent="48ef80bc37b76060-230" vertex="1" connectable="0">
          <mxGeometry width="80" height="70" as="geometry" />
        </mxCell>
        <mxCell id="48ef80bc37b76060-232" value="" style="verticalLabelPosition=bottom;html=1;verticalAlign=top;align=center;strokeWidth=1;shape=mxgraph.floorplan.office_chair;shadow=0;rounded=0;comic=0;fontFamily=Verdana;fontSize=12;rotation=-90;" parent="48ef80bc37b76060-231" vertex="1">
          <mxGeometry x="7" y="14" width="40" height="43" as="geometry" />
        </mxCell>
        <mxCell id="48ef80bc37b76060-233" value="" style="shape=rect;shadow=0;rounded=0;comic=0;fontFamily=Verdana;fontSize=12;align=center;html=1;rotation=-90;" parent="48ef80bc37b76060-231" vertex="1">
          <mxGeometry x="10" y="10" width="80" height="50" as="geometry" />
        </mxCell>
        <mxCell id="48ef80bc37b76060-234" value="" style="verticalLabelPosition=bottom;html=1;verticalAlign=top;align=center;strokeWidth=1;shape=mxgraph.floorplan.workstation;shadow=0;flipV=1;rounded=0;comic=0;fontFamily=Verdana;fontSize=12;rotation=-90;" parent="48ef80bc37b76060-231" vertex="1">
          <mxGeometry x="30" y="15" width="50" height="40" as="geometry" />
        </mxCell>
        <mxCell id="48ef80bc37b76060-235" value="" style="verticalLabelPosition=bottom;html=1;verticalAlign=top;align=center;strokeWidth=1;shape=mxgraph.floorplan.doorLeft;rounded=0;shadow=0;comic=0;fontFamily=Verdana;fontSize=12;rotation=90;flipV=1;flipH=1;" parent="1" vertex="1">
          <mxGeometry x="2643" y="934" width="80" height="85" as="geometry" />
        </mxCell>
        <mxCell id="48ef80bc37b76060-236" value="" style="verticalLabelPosition=bottom;html=1;verticalAlign=top;align=center;strokeWidth=1;shape=mxgraph.floorplan.plant;rounded=0;shadow=0;comic=0;fontFamily=Verdana;fontSize=12;" parent="1" vertex="1">
          <mxGeometry x="2793" y="968" width="47" height="51" as="geometry" />
        </mxCell>
        <mxCell id="48ef80bc37b76060-237" value="" style="verticalLabelPosition=bottom;html=1;verticalAlign=top;align=center;strokeWidth=1;shape=mxgraph.floorplan.dresser;rounded=0;shadow=0;comic=0;fontFamily=Verdana;fontSize=12;rotation=-90;" parent="1" vertex="1">
          <mxGeometry x="2631" y="831" width="100" height="65" as="geometry" />
        </mxCell>
        <mxCell id="48ef80bc37b76060-238" value="" style="verticalLabelPosition=bottom;html=1;verticalAlign=top;align=center;strokeWidth=1;shape=mxgraph.floorplan.wall;fillColor=#000000;rounded=0;shadow=0;comic=0;fontFamily=Verdana;fontSize=12;" parent="1" vertex="1">
          <mxGeometry x="2648" y="583" width="204" height="10" as="geometry" />
        </mxCell>
        <mxCell id="48ef80bc37b76060-239" value="" style="verticalLabelPosition=bottom;html=1;verticalAlign=top;align=center;strokeWidth=1;shape=mxgraph.floorplan.wall;fillColor=#000000;direction=south;rounded=0;shadow=0;comic=0;fontFamily=Verdana;fontSize=12;" parent="1" vertex="1">
          <mxGeometry x="2638" y="577" width="10" height="139" as="geometry" />
        </mxCell>
        <mxCell id="48ef80bc37b76060-240" value="" style="group" parent="1" vertex="1" connectable="0">
          <mxGeometry x="2768" y="599" width="80" height="70" as="geometry" />
        </mxCell>
        <mxCell id="48ef80bc37b76060-241" value="" style="group;rotation=-90;" parent="48ef80bc37b76060-240" vertex="1" connectable="0">
          <mxGeometry width="80" height="70" as="geometry" />
        </mxCell>
        <mxCell id="48ef80bc37b76060-242" value="" style="verticalLabelPosition=bottom;html=1;verticalAlign=top;align=center;strokeWidth=1;shape=mxgraph.floorplan.office_chair;shadow=0;rounded=0;comic=0;fontFamily=Verdana;fontSize=12;rotation=-90;" parent="48ef80bc37b76060-241" vertex="1">
          <mxGeometry x="7" y="14" width="40" height="43" as="geometry" />
        </mxCell>
        <mxCell id="48ef80bc37b76060-243" value="" style="shape=rect;shadow=0;rounded=0;comic=0;fontFamily=Verdana;fontSize=12;align=center;html=1;rotation=-90;" parent="48ef80bc37b76060-241" vertex="1">
          <mxGeometry x="10" y="10" width="80" height="50" as="geometry" />
        </mxCell>
        <mxCell id="48ef80bc37b76060-244" value="" style="verticalLabelPosition=bottom;html=1;verticalAlign=top;align=center;strokeWidth=1;shape=mxgraph.floorplan.workstation;shadow=0;flipV=1;rounded=0;comic=0;fontFamily=Verdana;fontSize=12;rotation=-90;" parent="48ef80bc37b76060-241" vertex="1">
          <mxGeometry x="30" y="15" width="50" height="40" as="geometry" />
        </mxCell>
        <mxCell id="48ef80bc37b76060-245" value="" style="verticalLabelPosition=bottom;html=1;verticalAlign=top;align=center;strokeWidth=1;shape=mxgraph.floorplan.doorLeft;rounded=0;shadow=0;comic=0;fontFamily=Verdana;fontSize=12;rotation=90;flipV=1;flipH=1;" parent="1" vertex="1">
          <mxGeometry x="2643" y="714" width="80" height="85" as="geometry" />
        </mxCell>
        <mxCell id="48ef80bc37b76060-246" value="" style="verticalLabelPosition=bottom;html=1;verticalAlign=top;align=center;strokeWidth=1;shape=mxgraph.floorplan.plant;rounded=0;shadow=0;comic=0;fontFamily=Verdana;fontSize=12;" parent="1" vertex="1">
          <mxGeometry x="2793" y="748" width="47" height="51" as="geometry" />
        </mxCell>
        <mxCell id="48ef80bc37b76060-247" value="" style="verticalLabelPosition=bottom;html=1;verticalAlign=top;align=center;strokeWidth=1;shape=mxgraph.floorplan.dresser;rounded=0;shadow=0;comic=0;fontFamily=Verdana;fontSize=12;rotation=-90;" parent="1" vertex="1">
          <mxGeometry x="2631" y="611" width="100" height="65" as="geometry" />
        </mxCell>
        <mxCell id="48ef80bc37b76060-249" value="" style="verticalLabelPosition=bottom;html=1;verticalAlign=top;align=center;strokeWidth=1;shape=mxgraph.floorplan.wall;fillColor=#000000;direction=south;rounded=0;shadow=0;comic=0;fontFamily=Verdana;fontSize=12;" parent="1" vertex="1">
          <mxGeometry x="2638" y="247" width="10" height="248" as="geometry" />
        </mxCell>
        <mxCell id="48ef80bc37b76060-255" value="" style="verticalLabelPosition=bottom;html=1;verticalAlign=top;align=center;strokeWidth=1;shape=mxgraph.floorplan.doorLeft;rounded=0;shadow=0;comic=0;fontFamily=Verdana;fontSize=12;rotation=90;flipV=1;flipH=1;" parent="1" vertex="1">
          <mxGeometry x="2643" y="493" width="80" height="85" as="geometry" />
        </mxCell>
        <mxCell id="48ef80bc37b76060-256" value="" style="verticalLabelPosition=bottom;html=1;verticalAlign=top;align=center;strokeWidth=1;shape=mxgraph.floorplan.plant;rounded=0;shadow=0;comic=0;fontFamily=Verdana;fontSize=12;" parent="1" vertex="1">
          <mxGeometry x="2793" y="527" width="47" height="51" as="geometry" />
        </mxCell>
        <mxCell id="48ef80bc37b76060-257" value="" style="verticalLabelPosition=bottom;html=1;verticalAlign=top;align=center;strokeWidth=1;shape=mxgraph.floorplan.dresser;rounded=0;shadow=0;comic=0;fontFamily=Verdana;fontSize=12;rotation=0;" parent="1" vertex="1">
          <mxGeometry x="2650" y="253" width="100" height="65" as="geometry" />
        </mxCell>
        <mxCell id="48ef80bc37b76060-258" value="" style="verticalLabelPosition=bottom;html=1;verticalAlign=top;align=center;strokeWidth=1;shape=mxgraph.floorplan.wallCorner;fillColor=#000000;direction=west;rounded=0;shadow=0;comic=0;fontFamily=Verdana;fontSize=12;" parent="1" vertex="1">
          <mxGeometry x="401" y="607" width="202" height="12" as="geometry" />
        </mxCell>
        <mxCell id="48ef80bc37b76060-260" value="" style="verticalLabelPosition=bottom;html=1;verticalAlign=top;align=center;strokeWidth=1;shape=mxgraph.floorplan.wall;fillColor=#000000;direction=south;rounded=0;shadow=0;comic=0;fontFamily=Verdana;fontSize=12;" parent="1" vertex="1">
          <mxGeometry x="593" y="247" width="10" height="279" as="geometry" />
        </mxCell>
        <mxCell id="48ef80bc37b76060-261" value="" style="verticalLabelPosition=bottom;html=1;verticalAlign=top;align=center;strokeWidth=1;shape=mxgraph.floorplan.doorLeft;rounded=0;shadow=0;comic=0;fontFamily=Verdana;fontSize=12;rotation=90;flipH=1;" parent="1" vertex="1">
          <mxGeometry x="518" y="524" width="80" height="85" as="geometry" />
        </mxCell>
        <mxCell id="48ef80bc37b76060-264" value="" style="verticalLabelPosition=bottom;html=1;verticalAlign=top;align=center;strokeWidth=1;shape=mxgraph.floorplan.wall;fillColor=#000000;rounded=0;shadow=0;comic=0;fontFamily=Verdana;fontSize=12;" parent="1" vertex="1">
          <mxGeometry x="603" y="483" width="212" height="10" as="geometry" />
        </mxCell>
        <mxCell id="48ef80bc37b76060-265" value="" style="group;rotation=90;" parent="1" vertex="1" connectable="0">
          <mxGeometry x="626" y="264" width="160" height="140" as="geometry" />
        </mxCell>
        <mxCell id="48ef80bc37b76060-100" value="" style="verticalLabelPosition=bottom;html=1;verticalAlign=top;align=center;strokeWidth=1;shape=mxgraph.floorplan.office_chair;shadow=0;rounded=0;comic=0;fontFamily=Verdana;fontSize=12;rotation=90;" parent="48ef80bc37b76060-265" vertex="1">
          <mxGeometry x="109" y="19" width="40" height="43" as="geometry" />
        </mxCell>
        <mxCell id="48ef80bc37b76060-101" value="" style="verticalLabelPosition=bottom;html=1;verticalAlign=top;align=center;strokeWidth=1;shape=mxgraph.floorplan.office_chair;shadow=0;direction=west;rounded=0;comic=0;fontFamily=Verdana;fontSize=12;rotation=90;" parent="48ef80bc37b76060-265" vertex="1">
          <mxGeometry x="12" y="19" width="40" height="43" as="geometry" />
        </mxCell>
        <mxCell id="48ef80bc37b76060-104" value="" style="verticalLabelPosition=bottom;html=1;verticalAlign=top;align=center;strokeWidth=1;shape=mxgraph.floorplan.office_chair;shadow=0;rounded=0;comic=0;fontFamily=Verdana;fontSize=12;rotation=90;" parent="48ef80bc37b76060-265" vertex="1">
          <mxGeometry x="109" y="79" width="40" height="43" as="geometry" />
        </mxCell>
        <mxCell id="48ef80bc37b76060-105" value="" style="verticalLabelPosition=bottom;html=1;verticalAlign=top;align=center;strokeWidth=1;shape=mxgraph.floorplan.office_chair;shadow=0;direction=west;rounded=0;comic=0;fontFamily=Verdana;fontSize=12;rotation=90;" parent="48ef80bc37b76060-265" vertex="1">
          <mxGeometry x="12" y="79" width="40" height="43" as="geometry" />
        </mxCell>
        <mxCell id="48ef80bc37b76060-106" value="" style="shape=rect;shadow=0;rounded=0;comic=0;fontFamily=Verdana;fontSize=12;align=center;html=1;rotation=90;" parent="48ef80bc37b76060-265" vertex="1">
          <mxGeometry y="20" width="160" height="100" as="geometry" />
        </mxCell>
        <mxCell id="48ef80bc37b76060-64" value="" style="verticalLabelPosition=bottom;html=1;verticalAlign=top;align=center;strokeWidth=1;shape=mxgraph.floorplan.office_chair;shadow=0;rounded=0;comic=0;fontFamily=Verdana;fontSize=12;rotation=180;" parent="1" vertex="1">
          <mxGeometry x="476" y="281" width="40" height="43" as="geometry" />
        </mxCell>
        <mxCell id="48ef80bc37b76060-65" value="" style="shape=rect;shadow=0;rounded=0;comic=0;fontFamily=Verdana;fontSize=12;align=center;html=1;rotation=180;" parent="1" vertex="1">
          <mxGeometry x="404" y="253" width="187" height="50" as="geometry" />
        </mxCell>
        <mxCell id="48ef80bc37b76060-66" value="" style="verticalLabelPosition=bottom;html=1;verticalAlign=top;align=center;strokeWidth=1;shape=mxgraph.floorplan.workstation;shadow=0;flipV=1;rounded=0;comic=0;fontFamily=Verdana;fontSize=12;rotation=180;" parent="1" vertex="1">
          <mxGeometry x="471" y="253" width="50" height="40" as="geometry" />
        </mxCell>
        <mxCell id="48ef80bc37b76060-266" value="" style="verticalLabelPosition=bottom;html=1;verticalAlign=top;align=center;strokeWidth=1;shape=mxgraph.floorplan.flat_tv;rounded=0;shadow=0;comic=0;fontFamily=Verdana;fontSize=12;rotation=-35;" parent="1" vertex="1">
          <mxGeometry x="402" y="274" width="70" height="10" as="geometry" />
        </mxCell>
        <mxCell id="48ef80bc37b76060-267" value="" style="verticalLabelPosition=bottom;html=1;verticalAlign=top;align=center;strokeWidth=1;shape=mxgraph.floorplan.flat_tv;rounded=0;shadow=0;comic=0;fontFamily=Verdana;fontSize=12;rotation=30;" parent="1" vertex="1">
          <mxGeometry x="523" y="275" width="70" height="10" as="geometry" />
        </mxCell>
        <mxCell id="48ef80bc37b76060-273" value="" style="group;rotation=-90;" parent="1" vertex="1" connectable="0">
          <mxGeometry x="344" y="477" width="191" height="71" as="geometry" />
        </mxCell>
        <mxCell id="48ef80bc37b76060-268" value="" style="verticalLabelPosition=bottom;html=1;verticalAlign=top;align=center;strokeWidth=1;shape=mxgraph.floorplan.office_chair;shadow=0;rounded=0;comic=0;fontFamily=Verdana;fontSize=12;rotation=90;" parent="48ef80bc37b76060-273" vertex="1">
          <mxGeometry x="90" y="16" width="40" height="43" as="geometry" />
        </mxCell>
        <mxCell id="48ef80bc37b76060-269" value="" style="shape=rect;shadow=0;rounded=0;comic=0;fontFamily=Verdana;fontSize=12;align=center;html=1;rotation=90;" parent="48ef80bc37b76060-273" vertex="1">
          <mxGeometry x="-8" y="11" width="187" height="50" as="geometry" />
        </mxCell>
        <mxCell id="48ef80bc37b76060-270" value="" style="verticalLabelPosition=bottom;html=1;verticalAlign=top;align=center;strokeWidth=1;shape=mxgraph.floorplan.workstation;shadow=0;flipV=1;rounded=0;comic=0;fontFamily=Verdana;fontSize=12;rotation=90;" parent="48ef80bc37b76060-273" vertex="1">
          <mxGeometry x="55" y="17" width="50" height="40" as="geometry" />
        </mxCell>
        <mxCell id="48ef80bc37b76060-271" value="" style="verticalLabelPosition=bottom;html=1;verticalAlign=top;align=center;strokeWidth=1;shape=mxgraph.floorplan.flat_tv;rounded=0;shadow=0;comic=0;fontFamily=Verdana;fontSize=12;rotation=-125;" parent="48ef80bc37b76060-273" vertex="1">
          <mxGeometry x="51" y="91" width="70" height="10" as="geometry" />
        </mxCell>
        <mxCell id="48ef80bc37b76060-272" value="" style="verticalLabelPosition=bottom;html=1;verticalAlign=top;align=center;strokeWidth=1;shape=mxgraph.floorplan.flat_tv;rounded=0;shadow=0;comic=0;fontFamily=Verdana;fontSize=12;rotation=-60;" parent="48ef80bc37b76060-273" vertex="1">
          <mxGeometry x="52" y="-30" width="70" height="10" as="geometry" />
        </mxCell>
        <mxCell id="48ef80bc37b76060-274" value="" style="verticalLabelPosition=bottom;html=1;verticalAlign=top;align=center;strokeWidth=1;shape=mxgraph.floorplan.plant;rounded=0;shadow=0;comic=0;fontFamily=Verdana;fontSize=12;" parent="1" vertex="1">
          <mxGeometry x="405" y="345" width="47" height="51" as="geometry" />
        </mxCell>
        <mxCell id="48ef80bc37b76060-275" value="" style="verticalLabelPosition=bottom;html=1;verticalAlign=top;align=center;strokeWidth=1;shape=mxgraph.floorplan.dresser;rounded=0;shadow=0;comic=0;fontFamily=Verdana;fontSize=12;rotation=90;" parent="1" vertex="1">
          <mxGeometry x="509" y="379" width="100" height="65" as="geometry" />
        </mxCell>
        <mxCell id="48ef80bc37b76060-276" value="" style="group;rotation=90;" parent="1" vertex="1" connectable="0">
          <mxGeometry x="1015" y="264" width="160" height="140" as="geometry" />
        </mxCell>
        <mxCell id="48ef80bc37b76060-107" value="" style="verticalLabelPosition=bottom;html=1;verticalAlign=top;align=center;strokeWidth=1;shape=mxgraph.floorplan.office_chair;shadow=0;rounded=0;comic=0;fontFamily=Verdana;fontSize=12;rotation=90;" parent="48ef80bc37b76060-276" vertex="1">
          <mxGeometry x="109" y="19" width="40" height="43" as="geometry" />
        </mxCell>
        <mxCell id="48ef80bc37b76060-108" value="" style="verticalLabelPosition=bottom;html=1;verticalAlign=top;align=center;strokeWidth=1;shape=mxgraph.floorplan.office_chair;shadow=0;direction=west;rounded=0;comic=0;fontFamily=Verdana;fontSize=12;rotation=90;" parent="48ef80bc37b76060-276" vertex="1">
          <mxGeometry x="12" y="19" width="40" height="43" as="geometry" />
        </mxCell>
        <mxCell id="48ef80bc37b76060-111" value="" style="verticalLabelPosition=bottom;html=1;verticalAlign=top;align=center;strokeWidth=1;shape=mxgraph.floorplan.office_chair;shadow=0;rounded=0;comic=0;fontFamily=Verdana;fontSize=12;rotation=90;" parent="48ef80bc37b76060-276" vertex="1">
          <mxGeometry x="109" y="79" width="40" height="43" as="geometry" />
        </mxCell>
        <mxCell id="48ef80bc37b76060-112" value="" style="verticalLabelPosition=bottom;html=1;verticalAlign=top;align=center;strokeWidth=1;shape=mxgraph.floorplan.office_chair;shadow=0;direction=west;rounded=0;comic=0;fontFamily=Verdana;fontSize=12;rotation=90;" parent="48ef80bc37b76060-276" vertex="1">
          <mxGeometry x="12" y="79" width="40" height="43" as="geometry" />
        </mxCell>
        <mxCell id="48ef80bc37b76060-113" value="" style="shape=rect;shadow=0;rounded=0;comic=0;fontFamily=Verdana;fontSize=12;align=center;html=1;rotation=90;" parent="48ef80bc37b76060-276" vertex="1">
          <mxGeometry y="20" width="160" height="100" as="geometry" />
        </mxCell>
        <mxCell id="48ef80bc37b76060-277" value="" style="verticalLabelPosition=bottom;html=1;verticalAlign=top;align=center;strokeWidth=1;shape=mxgraph.floorplan.doorDouble;rounded=0;shadow=0;comic=0;fontFamily=Verdana;fontSize=12;flipV=1;" parent="1" vertex="1">
          <mxGeometry x="816" y="405" width="160" height="85" as="geometry" />
        </mxCell>
        <mxCell id="48ef80bc37b76060-252" value="" style="verticalLabelPosition=bottom;html=1;verticalAlign=top;align=center;strokeWidth=1;shape=mxgraph.floorplan.office_chair;shadow=0;rounded=0;comic=0;fontFamily=Verdana;fontSize=12;rotation=-90;" parent="1" vertex="1">
          <mxGeometry x="2774" y="358" width="40" height="43" as="geometry" />
        </mxCell>
        <mxCell id="48ef80bc37b76060-253" value="" style="shape=rect;shadow=0;rounded=0;comic=0;fontFamily=Verdana;fontSize=12;align=center;html=1;rotation=-90;" parent="1" vertex="1">
          <mxGeometry x="2750" y="360" width="135" height="50" as="geometry" />
        </mxCell>
        <mxCell id="48ef80bc37b76060-254" value="" style="verticalLabelPosition=bottom;html=1;verticalAlign=top;align=center;strokeWidth=1;shape=mxgraph.floorplan.workstation;shadow=0;flipV=1;rounded=0;comic=0;fontFamily=Verdana;fontSize=12;rotation=-90;" parent="1" vertex="1">
          <mxGeometry x="2797" y="359" width="50" height="40" as="geometry" />
        </mxCell>
        <mxCell id="48ef80bc37b76060-278" value="" style="verticalLabelPosition=bottom;html=1;verticalAlign=top;align=center;strokeWidth=1;shape=mxgraph.floorplan.plant;rounded=0;shadow=0;comic=0;fontFamily=Verdana;fontSize=12;" parent="1" vertex="1">
          <mxGeometry x="2791" y="256" width="47" height="51" as="geometry" />
        </mxCell>
        <mxCell id="48ef80bc37b76060-279" value="" style="verticalLabelPosition=bottom;html=1;verticalAlign=top;align=center;strokeWidth=1;shape=mxgraph.floorplan.wall;fillColor=#000000;rounded=0;shadow=0;comic=0;fontFamily=Verdana;fontSize=12;" parent="1" vertex="1">
          <mxGeometry x="2413" y="483" width="230" height="10" as="geometry" />
        </mxCell>
        <mxCell id="48ef80bc37b76060-280" value="" style="verticalLabelPosition=bottom;html=1;verticalAlign=top;align=center;strokeWidth=1;shape=mxgraph.floorplan.office_chair;shadow=0;rounded=0;comic=0;fontFamily=Verdana;fontSize=12;" parent="1" vertex="1">
          <mxGeometry x="2525" y="297" width="40" height="43" as="geometry" />
        </mxCell>
        <mxCell id="48ef80bc37b76060-281" value="" style="verticalLabelPosition=bottom;html=1;verticalAlign=top;align=center;strokeWidth=1;shape=mxgraph.floorplan.office_chair;shadow=0;direction=west;rounded=0;comic=0;fontFamily=Verdana;fontSize=12;" parent="1" vertex="1">
          <mxGeometry x="2525" y="394" width="40" height="43" as="geometry" />
        </mxCell>
        <mxCell id="48ef80bc37b76060-282" value="" style="verticalLabelPosition=bottom;html=1;verticalAlign=top;align=center;strokeWidth=1;shape=mxgraph.floorplan.office_chair;shadow=0;direction=north;rounded=0;comic=0;fontFamily=Verdana;fontSize=12;" parent="1" vertex="1">
          <mxGeometry x="2475" y="347" width="43" height="40" as="geometry" />
        </mxCell>
        <mxCell id="48ef80bc37b76060-283" value="" style="verticalLabelPosition=bottom;html=1;verticalAlign=top;align=center;strokeWidth=1;shape=mxgraph.floorplan.office_chair;shadow=0;direction=south;rounded=0;comic=0;fontFamily=Verdana;fontSize=12;" parent="1" vertex="1">
          <mxGeometry x="2572" y="347" width="43" height="40" as="geometry" />
        </mxCell>
        <mxCell id="48ef80bc37b76060-284" value="" style="shape=rect;shadow=0;rounded=0;comic=0;fontFamily=Verdana;fontSize=12;align=center;html=1;" parent="1" vertex="1">
          <mxGeometry x="2495" y="317" width="100" height="100" as="geometry" />
        </mxCell>
        <mxCell id="48ef80bc37b76060-285" value="" style="verticalLabelPosition=bottom;html=1;verticalAlign=top;align=center;strokeWidth=1;shape=mxgraph.floorplan.wall;fillColor=#000000;direction=south;rounded=0;shadow=0;comic=0;fontFamily=Verdana;fontSize=12;" parent="1" vertex="1">
          <mxGeometry x="2318" y="243" width="10" height="248" as="geometry" />
        </mxCell>
        <mxCell id="48ef80bc37b76060-286" value="" style="verticalLabelPosition=bottom;html=1;verticalAlign=top;align=center;strokeWidth=1;shape=mxgraph.floorplan.plant;rounded=0;shadow=0;comic=0;fontFamily=Verdana;fontSize=12;" parent="1" vertex="1">
          <mxGeometry x="2416" y="258" width="47" height="51" as="geometry" />
        </mxCell>
        <mxCell id="48ef80bc37b76060-287" value="" style="verticalLabelPosition=bottom;html=1;verticalAlign=top;align=center;strokeWidth=1;shape=mxgraph.floorplan.doorLeft;rounded=0;shadow=0;comic=0;fontFamily=Verdana;fontSize=12;flipV=1;" parent="1" vertex="1">
          <mxGeometry x="2333" y="405" width="80" height="85" as="geometry" />
        </mxCell>
        <mxCell id="48ef80bc37b76060-288" value="" style="verticalLabelPosition=bottom;html=1;verticalAlign=top;align=center;strokeWidth=1;shape=mxgraph.floorplan.wall;fillColor=#000000;rounded=0;shadow=0;comic=0;fontFamily=Verdana;fontSize=12;" parent="1" vertex="1">
          <mxGeometry x="2313" y="483" width="20" height="10" as="geometry" />
        </mxCell>
        <mxCell id="48ef80bc37b76060-289" value="" style="verticalLabelPosition=bottom;html=1;verticalAlign=top;align=center;strokeWidth=1;shape=mxgraph.floorplan.doorRight;rounded=0;shadow=0;comic=0;fontFamily=Verdana;fontSize=12;flipV=1;" parent="1" vertex="1">
          <mxGeometry x="2233" y="405" width="80" height="85" as="geometry" />
        </mxCell>
        <mxCell id="48ef80bc37b76060-290" value="" style="verticalLabelPosition=bottom;html=1;verticalAlign=top;align=center;strokeWidth=1;shape=mxgraph.floorplan.wall;fillColor=#000000;rounded=0;shadow=0;comic=0;fontFamily=Verdana;fontSize=12;" parent="1" vertex="1">
          <mxGeometry x="2093" y="483" width="140" height="10" as="geometry" />
        </mxCell>
        <mxCell id="48ef80bc37b76060-291" value="" style="verticalLabelPosition=bottom;html=1;verticalAlign=top;align=center;strokeWidth=1;shape=mxgraph.floorplan.wall;fillColor=#000000;direction=south;rounded=0;shadow=0;comic=0;fontFamily=Verdana;fontSize=12;" parent="1" vertex="1">
          <mxGeometry x="2098" y="247" width="10" height="244" as="geometry" />
        </mxCell>
        <mxCell id="48ef80bc37b76060-292" value="" style="group;rotation=90;" parent="1" vertex="1" connectable="0">
          <mxGeometry x="2104" y="273" width="80" height="70" as="geometry" />
        </mxCell>
        <mxCell id="48ef80bc37b76060-293" value="" style="verticalLabelPosition=bottom;html=1;verticalAlign=top;align=center;strokeWidth=1;shape=mxgraph.floorplan.office_chair;shadow=0;rounded=0;comic=0;fontFamily=Verdana;fontSize=12;rotation=90;" parent="48ef80bc37b76060-292" vertex="1">
          <mxGeometry x="35" y="14" width="40" height="43" as="geometry" />
        </mxCell>
        <mxCell id="48ef80bc37b76060-294" value="" style="shape=rect;shadow=0;rounded=0;comic=0;fontFamily=Verdana;fontSize=12;align=center;html=1;rotation=90;" parent="48ef80bc37b76060-292" vertex="1">
          <mxGeometry x="-10" y="10" width="80" height="50" as="geometry" />
        </mxCell>
        <mxCell id="48ef80bc37b76060-295" value="" style="verticalLabelPosition=bottom;html=1;verticalAlign=top;align=center;strokeWidth=1;shape=mxgraph.floorplan.workstation;shadow=0;flipV=1;rounded=0;comic=0;fontFamily=Verdana;fontSize=12;rotation=90;" parent="48ef80bc37b76060-292" vertex="1">
          <mxGeometry y="15" width="50" height="40" as="geometry" />
        </mxCell>
        <mxCell id="48ef80bc37b76060-296" value="" style="verticalLabelPosition=bottom;html=1;verticalAlign=top;align=center;strokeWidth=1;shape=mxgraph.floorplan.dresser;rounded=0;shadow=0;comic=0;fontFamily=Verdana;fontSize=12;rotation=-90;" parent="1" vertex="1">
          <mxGeometry x="2091" y="400" width="100" height="65" as="geometry" />
        </mxCell>
        <mxCell id="48ef80bc37b76060-297" value="" style="verticalLabelPosition=bottom;html=1;verticalAlign=top;align=center;strokeWidth=1;shape=mxgraph.floorplan.plant;rounded=0;shadow=0;comic=0;fontFamily=Verdana;fontSize=12;" parent="1" vertex="1">
          <mxGeometry x="2261" y="260" width="47" height="51" as="geometry" />
        </mxCell>
        <mxCell id="48ef80bc37b76060-298" value="" style="verticalLabelPosition=bottom;html=1;verticalAlign=top;align=center;strokeWidth=1;shape=mxgraph.floorplan.doorRight;rounded=0;shadow=0;comic=0;fontFamily=Verdana;fontSize=12;flipV=1;" parent="1" vertex="1">
          <mxGeometry x="2013" y="405" width="80" height="85" as="geometry" />
        </mxCell>
        <mxCell id="48ef80bc37b76060-299" value="" style="verticalLabelPosition=bottom;html=1;verticalAlign=top;align=center;strokeWidth=1;shape=mxgraph.floorplan.wall;fillColor=#000000;rounded=0;shadow=0;comic=0;fontFamily=Verdana;fontSize=12;" parent="1" vertex="1">
          <mxGeometry x="1873" y="483" width="140" height="10" as="geometry" />
        </mxCell>
        <mxCell id="48ef80bc37b76060-300" value="" style="verticalLabelPosition=bottom;html=1;verticalAlign=top;align=center;strokeWidth=1;shape=mxgraph.floorplan.wall;fillColor=#000000;direction=south;rounded=0;shadow=0;comic=0;fontFamily=Verdana;fontSize=12;" parent="1" vertex="1">
          <mxGeometry x="1878" y="247" width="10" height="244" as="geometry" />
        </mxCell>
        <mxCell id="48ef80bc37b76060-301" value="" style="group;rotation=90;" parent="1" vertex="1" connectable="0">
          <mxGeometry x="1884" y="273" width="80" height="70" as="geometry" />
        </mxCell>
        <mxCell id="48ef80bc37b76060-302" value="" style="verticalLabelPosition=bottom;html=1;verticalAlign=top;align=center;strokeWidth=1;shape=mxgraph.floorplan.office_chair;shadow=0;rounded=0;comic=0;fontFamily=Verdana;fontSize=12;rotation=90;" parent="48ef80bc37b76060-301" vertex="1">
          <mxGeometry x="35" y="14" width="40" height="43" as="geometry" />
        </mxCell>
        <mxCell id="48ef80bc37b76060-303" value="" style="shape=rect;shadow=0;rounded=0;comic=0;fontFamily=Verdana;fontSize=12;align=center;html=1;rotation=90;" parent="48ef80bc37b76060-301" vertex="1">
          <mxGeometry x="-10" y="10" width="80" height="50" as="geometry" />
        </mxCell>
        <mxCell id="48ef80bc37b76060-304" value="" style="verticalLabelPosition=bottom;html=1;verticalAlign=top;align=center;strokeWidth=1;shape=mxgraph.floorplan.workstation;shadow=0;flipV=1;rounded=0;comic=0;fontFamily=Verdana;fontSize=12;rotation=90;" parent="48ef80bc37b76060-301" vertex="1">
          <mxGeometry y="15" width="50" height="40" as="geometry" />
        </mxCell>
        <mxCell id="48ef80bc37b76060-305" value="" style="verticalLabelPosition=bottom;html=1;verticalAlign=top;align=center;strokeWidth=1;shape=mxgraph.floorplan.dresser;rounded=0;shadow=0;comic=0;fontFamily=Verdana;fontSize=12;rotation=-90;" parent="1" vertex="1">
          <mxGeometry x="1871" y="400" width="100" height="65" as="geometry" />
        </mxCell>
        <mxCell id="48ef80bc37b76060-306" value="" style="verticalLabelPosition=bottom;html=1;verticalAlign=top;align=center;strokeWidth=1;shape=mxgraph.floorplan.plant;rounded=0;shadow=0;comic=0;fontFamily=Verdana;fontSize=12;" parent="1" vertex="1">
          <mxGeometry x="2041" y="260" width="47" height="51" as="geometry" />
        </mxCell>
        <mxCell id="48ef80bc37b76060-307" value="" style="verticalLabelPosition=bottom;html=1;verticalAlign=top;align=center;strokeWidth=1;shape=mxgraph.floorplan.doorRight;rounded=0;shadow=0;comic=0;fillColor=#FFFFFF;fontFamily=Verdana;fontSize=12;flipV=1;" parent="1" vertex="1">
          <mxGeometry x="1793" y="405" width="80" height="85" as="geometry" />
        </mxCell>
        <mxCell id="48ef80bc37b76060-308" value="" style="verticalLabelPosition=bottom;html=1;verticalAlign=top;align=center;strokeWidth=1;shape=mxgraph.floorplan.wall;fillColor=#000000;rounded=0;shadow=0;comic=0;fontFamily=Verdana;fontSize=12;" parent="1" vertex="1">
          <mxGeometry x="1653" y="483" width="140" height="10" as="geometry" />
        </mxCell>
        <mxCell id="48ef80bc37b76060-309" value="" style="verticalLabelPosition=bottom;html=1;verticalAlign=top;align=center;strokeWidth=1;shape=mxgraph.floorplan.wall;fillColor=#000000;direction=south;rounded=0;shadow=0;comic=0;fontFamily=Verdana;fontSize=12;" parent="1" vertex="1">
          <mxGeometry x="1658" y="247" width="10" height="244" as="geometry" />
        </mxCell>
        <mxCell id="48ef80bc37b76060-310" value="" style="group;rotation=90;" parent="1" vertex="1" connectable="0">
          <mxGeometry x="1664" y="273" width="80" height="70" as="geometry" />
        </mxCell>
        <mxCell id="48ef80bc37b76060-311" value="" style="verticalLabelPosition=bottom;html=1;verticalAlign=top;align=center;strokeWidth=1;shape=mxgraph.floorplan.office_chair;shadow=0;rounded=0;comic=0;fontFamily=Verdana;fontSize=12;rotation=90;" parent="48ef80bc37b76060-310" vertex="1">
          <mxGeometry x="35" y="14" width="40" height="43" as="geometry" />
        </mxCell>
        <mxCell id="48ef80bc37b76060-312" value="" style="shape=rect;shadow=0;rounded=0;comic=0;fontFamily=Verdana;fontSize=12;align=center;html=1;rotation=90;" parent="48ef80bc37b76060-310" vertex="1">
          <mxGeometry x="-10" y="10" width="80" height="50" as="geometry" />
        </mxCell>
        <mxCell id="48ef80bc37b76060-313" value="" style="verticalLabelPosition=bottom;html=1;verticalAlign=top;align=center;strokeWidth=1;shape=mxgraph.floorplan.workstation;shadow=0;flipV=1;rounded=0;comic=0;fontFamily=Verdana;fontSize=12;rotation=90;" parent="48ef80bc37b76060-310" vertex="1">
          <mxGeometry y="15" width="50" height="40" as="geometry" />
        </mxCell>
        <mxCell id="48ef80bc37b76060-314" value="" style="verticalLabelPosition=bottom;html=1;verticalAlign=top;align=center;strokeWidth=1;shape=mxgraph.floorplan.dresser;rounded=0;shadow=0;comic=0;fillColor=#FFFFFF;fontFamily=Verdana;fontSize=12;rotation=-90;" parent="1" vertex="1">
          <mxGeometry x="1651" y="400" width="100" height="65" as="geometry" />
        </mxCell>
        <mxCell id="48ef80bc37b76060-315" value="" style="verticalLabelPosition=bottom;html=1;verticalAlign=top;align=center;strokeWidth=1;shape=mxgraph.floorplan.plant;rounded=0;shadow=0;comic=0;fontFamily=Verdana;fontSize=12;" parent="1" vertex="1">
          <mxGeometry x="1821" y="260" width="47" height="51" as="geometry" />
        </mxCell>
        <mxCell id="48ef80bc37b76060-316" value="" style="verticalLabelPosition=bottom;html=1;verticalAlign=top;align=center;strokeWidth=1;shape=mxgraph.floorplan.doorRight;rounded=0;shadow=0;comic=0;fontFamily=Verdana;fontSize=12;flipV=1;" parent="1" vertex="1">
          <mxGeometry x="1573" y="405" width="80" height="85" as="geometry" />
        </mxCell>
        <mxCell id="48ef80bc37b76060-317" value="" style="verticalLabelPosition=bottom;html=1;verticalAlign=top;align=center;strokeWidth=1;shape=mxgraph.floorplan.wall;fillColor=#000000;rounded=0;shadow=0;comic=0;fontFamily=Verdana;fontSize=12;" parent="1" vertex="1">
          <mxGeometry x="1433" y="483" width="140" height="10" as="geometry" />
        </mxCell>
        <mxCell id="48ef80bc37b76060-318" value="" style="verticalLabelPosition=bottom;html=1;verticalAlign=top;align=center;strokeWidth=1;shape=mxgraph.floorplan.wall;fillColor=#000000;direction=south;rounded=0;shadow=0;comic=0;fontFamily=Verdana;fontSize=12;" parent="1" vertex="1">
          <mxGeometry x="1438" y="247" width="10" height="244" as="geometry" />
        </mxCell>
        <mxCell id="48ef80bc37b76060-319" value="" style="group;rotation=90;" parent="1" vertex="1" connectable="0">
          <mxGeometry x="1444" y="273" width="80" height="70" as="geometry" />
        </mxCell>
        <mxCell id="48ef80bc37b76060-320" value="" style="verticalLabelPosition=bottom;html=1;verticalAlign=top;align=center;strokeWidth=1;shape=mxgraph.floorplan.office_chair;shadow=0;rounded=0;comic=0;fontFamily=Verdana;fontSize=12;rotation=90;" parent="48ef80bc37b76060-319" vertex="1">
          <mxGeometry x="35" y="14" width="40" height="43" as="geometry" />
        </mxCell>
        <mxCell id="48ef80bc37b76060-321" value="" style="shape=rect;shadow=0;rounded=0;comic=0;fontFamily=Verdana;fontSize=12;align=center;html=1;rotation=90;" parent="48ef80bc37b76060-319" vertex="1">
          <mxGeometry x="-10" y="10" width="80" height="50" as="geometry" />
        </mxCell>
        <mxCell id="48ef80bc37b76060-322" value="" style="verticalLabelPosition=bottom;html=1;verticalAlign=top;align=center;strokeWidth=1;shape=mxgraph.floorplan.workstation;shadow=0;flipV=1;rounded=0;comic=0;fontFamily=Verdana;fontSize=12;rotation=90;" parent="48ef80bc37b76060-319" vertex="1">
          <mxGeometry y="15" width="50" height="40" as="geometry" />
        </mxCell>
        <mxCell id="48ef80bc37b76060-323" value="" style="verticalLabelPosition=bottom;html=1;verticalAlign=top;align=center;strokeWidth=1;shape=mxgraph.floorplan.dresser;rounded=0;shadow=0;comic=0;fontFamily=Verdana;fontSize=12;rotation=-90;" parent="1" vertex="1">
          <mxGeometry x="1431" y="400" width="100" height="65" as="geometry" />
        </mxCell>
        <mxCell id="48ef80bc37b76060-324" value="" style="verticalLabelPosition=bottom;html=1;verticalAlign=top;align=center;strokeWidth=1;shape=mxgraph.floorplan.plant;rounded=0;shadow=0;comic=0;fontFamily=Verdana;fontSize=12;" parent="1" vertex="1">
          <mxGeometry x="1601" y="260" width="47" height="51" as="geometry" />
        </mxCell>
        <mxCell id="48ef80bc37b76060-325" value="" style="verticalLabelPosition=bottom;html=1;verticalAlign=top;align=center;strokeWidth=1;shape=mxgraph.floorplan.doorRight;rounded=0;shadow=0;comic=0;fontFamily=Verdana;fontSize=12;flipV=1;" parent="1" vertex="1">
          <mxGeometry x="1352" y="405" width="80" height="85" as="geometry" />
        </mxCell>
        <mxCell id="48ef80bc37b76060-326" value="" style="verticalLabelPosition=bottom;html=1;verticalAlign=top;align=center;strokeWidth=1;shape=mxgraph.floorplan.wall;fillColor=#000000;rounded=0;shadow=0;comic=0;fontFamily=Verdana;fontSize=12;" parent="1" vertex="1">
          <mxGeometry x="976" y="483" width="375" height="10" as="geometry" />
        </mxCell>
        <mxCell id="48ef80bc37b76060-327" value="" style="verticalLabelPosition=bottom;html=1;verticalAlign=top;align=center;strokeWidth=1;shape=mxgraph.floorplan.wall;fillColor=#000000;direction=south;rounded=0;shadow=0;comic=0;fontFamily=Verdana;fontSize=12;" parent="1" vertex="1">
          <mxGeometry x="1217" y="247" width="10" height="244" as="geometry" />
        </mxCell>
        <mxCell id="48ef80bc37b76060-328" value="" style="group;rotation=90;" parent="1" vertex="1" connectable="0">
          <mxGeometry x="1223" y="273" width="80" height="70" as="geometry" />
        </mxCell>
        <mxCell id="48ef80bc37b76060-329" value="" style="verticalLabelPosition=bottom;html=1;verticalAlign=top;align=center;strokeWidth=1;shape=mxgraph.floorplan.office_chair;shadow=0;rounded=0;comic=0;fontFamily=Verdana;fontSize=12;rotation=90;" parent="48ef80bc37b76060-328" vertex="1">
          <mxGeometry x="35" y="14" width="40" height="43" as="geometry" />
        </mxCell>
        <mxCell id="48ef80bc37b76060-330" value="" style="shape=rect;shadow=0;rounded=0;comic=0;fontFamily=Verdana;fontSize=12;align=center;html=1;rotation=90;" parent="48ef80bc37b76060-328" vertex="1">
          <mxGeometry x="-10" y="10" width="80" height="50" as="geometry" />
        </mxCell>
        <mxCell id="48ef80bc37b76060-331" value="" style="verticalLabelPosition=bottom;html=1;verticalAlign=top;align=center;strokeWidth=1;shape=mxgraph.floorplan.workstation;shadow=0;flipV=1;rounded=0;comic=0;fontFamily=Verdana;fontSize=12;rotation=90;" parent="48ef80bc37b76060-328" vertex="1">
          <mxGeometry y="15" width="50" height="40" as="geometry" />
        </mxCell>
        <mxCell id="48ef80bc37b76060-332" value="" style="verticalLabelPosition=bottom;html=1;verticalAlign=top;align=center;strokeWidth=1;shape=mxgraph.floorplan.dresser;rounded=0;shadow=0;comic=0;fontFamily=Verdana;fontSize=12;rotation=-90;" parent="1" vertex="1">
          <mxGeometry x="1210" y="400" width="100" height="65" as="geometry" />
        </mxCell>
        <mxCell id="48ef80bc37b76060-333" value="" style="verticalLabelPosition=bottom;html=1;verticalAlign=top;align=center;strokeWidth=1;shape=mxgraph.floorplan.plant;rounded=0;shadow=0;comic=0;fontFamily=Verdana;fontSize=12;" parent="1" vertex="1">
          <mxGeometry x="1380" y="260" width="47" height="51" as="geometry" />
        </mxCell>
        <mxCell id="48ef80bc37b76060-337" value="" style="verticalLabelPosition=bottom;html=1;verticalAlign=top;align=center;strokeWidth=1;shape=mxgraph.floorplan.wall;fillColor=#000000;rounded=0;shadow=0;comic=0;fontFamily=Verdana;fontSize=12;" parent="1" vertex="1">
          <mxGeometry x="853" y="865" width="340" height="10" as="geometry" />
        </mxCell>
        <mxCell id="48ef80bc37b76060-338" value="" style="verticalLabelPosition=bottom;html=1;verticalAlign=top;align=center;strokeWidth=1;shape=mxgraph.floorplan.wall;fillColor=#000000;direction=south;rounded=0;shadow=0;comic=0;fontFamily=Verdana;fontSize=12;" parent="1" vertex="1">
          <mxGeometry x="853" y="629" width="10" height="150" as="geometry" />
        </mxCell>
        <mxCell id="48ef80bc37b76060-339" value="" style="verticalLabelPosition=bottom;html=1;verticalAlign=top;align=center;strokeWidth=1;shape=mxgraph.floorplan.wall;fillColor=#000000;direction=south;rounded=0;shadow=0;comic=0;fontFamily=Verdana;fontSize=12;" parent="1" vertex="1">
          <mxGeometry x="853" y="961" width="10" height="149" as="geometry" />
        </mxCell>
        <mxCell id="48ef80bc37b76060-340" value="" style="verticalLabelPosition=bottom;html=1;verticalAlign=top;align=center;strokeWidth=1;shape=mxgraph.floorplan.wall;fillColor=#000000;direction=south;rounded=0;shadow=0;comic=0;fontFamily=Verdana;fontSize=12;" parent="1" vertex="1">
          <mxGeometry x="853" y="860" width="10" height="20" as="geometry" />
        </mxCell>
        <mxCell id="48ef80bc37b76060-341" value="" style="verticalLabelPosition=bottom;html=1;verticalAlign=top;align=center;strokeWidth=1;shape=mxgraph.floorplan.doorLeft;rounded=0;shadow=0;comic=0;fontFamily=Verdana;fontSize=12;rotation=-90;" parent="1" vertex="1">
          <mxGeometry x="858" y="777" width="80" height="85" as="geometry" />
        </mxCell>
        <mxCell id="48ef80bc37b76060-342" value="" style="verticalLabelPosition=bottom;html=1;verticalAlign=top;align=center;strokeWidth=1;shape=mxgraph.floorplan.doorRight;rounded=0;shadow=0;comic=0;fontFamily=Verdana;fontSize=12;rotation=-90;" parent="1" vertex="1">
          <mxGeometry x="858" y="878" width="80" height="85" as="geometry" />
        </mxCell>
        <mxCell id="48ef80bc37b76060-343" value="" style="verticalLabelPosition=bottom;html=1;verticalAlign=top;align=center;strokeWidth=1;shape=mxgraph.floorplan.toilet;rounded=0;shadow=0;comic=0;fontFamily=Verdana;fontSize=12;rotation=-90;" parent="1" vertex="1">
          <mxGeometry x="1387" y="654" width="50" height="67" as="geometry" />
        </mxCell>
        <mxCell id="48ef80bc37b76060-344" value="" style="verticalLabelPosition=bottom;html=1;verticalAlign=top;align=center;strokeWidth=1;shape=mxgraph.floorplan.wall;fillColor=#000000;direction=south;rounded=0;shadow=0;comic=0;fontFamily=Verdana;fontSize=12;" parent="1" vertex="1">
          <mxGeometry x="1370" y="638" width="10" height="399" as="geometry" />
        </mxCell>
        <mxCell id="48ef80bc37b76060-345" value="" style="verticalLabelPosition=bottom;html=1;verticalAlign=top;align=center;strokeWidth=1;shape=mxgraph.floorplan.toilet;rounded=0;shadow=0;comic=0;fontFamily=Verdana;fontSize=12;rotation=-90;" parent="1" vertex="1">
          <mxGeometry x="1389" y="752" width="50" height="67" as="geometry" />
        </mxCell>
        <mxCell id="48ef80bc37b76060-346" value="" style="verticalLabelPosition=bottom;html=1;verticalAlign=top;align=center;strokeWidth=1;shape=mxgraph.floorplan.wall;fillColor=#000000;rounded=0;shadow=0;comic=0;fontFamily=Verdana;fontSize=12;" parent="1" vertex="1">
          <mxGeometry x="1380" y="731" width="172" height="10" as="geometry" />
        </mxCell>
        <mxCell id="48ef80bc37b76060-348" value="" style="verticalLabelPosition=bottom;html=1;verticalAlign=top;align=center;strokeWidth=1;shape=mxgraph.floorplan.doorLeft;rounded=0;shadow=0;comic=0;fillColor=#FFFFFF;fontFamily=Verdana;fontSize=12;rotation=90;" parent="1" vertex="1">
          <mxGeometry x="1478" y="644" width="80" height="85" as="geometry" />
        </mxCell>
        <mxCell id="48ef80bc37b76060-349" value="" style="verticalLabelPosition=bottom;html=1;verticalAlign=top;align=center;strokeWidth=1;shape=mxgraph.floorplan.doorLeft;rounded=0;shadow=0;comic=0;fillColor=#FFFFFF;fontFamily=Verdana;fontSize=12;rotation=90;" parent="1" vertex="1">
          <mxGeometry x="1478" y="743" width="80" height="85" as="geometry" />
        </mxCell>
        <mxCell id="48ef80bc37b76060-350" value="" style="verticalLabelPosition=bottom;html=1;verticalAlign=top;align=center;strokeWidth=1;shape=mxgraph.floorplan.wallCorner;fillColor=#000000;direction=west;rounded=0;shadow=0;comic=0;fontFamily=Verdana;fontSize=12;" parent="1" vertex="1">
          <mxGeometry x="1373" y="826" width="323" height="14" as="geometry" />
        </mxCell>
        <mxCell id="48ef80bc37b76060-351" value="" style="verticalLabelPosition=bottom;html=1;verticalAlign=top;align=center;strokeWidth=1;shape=mxgraph.floorplan.wall;fillColor=#000000;direction=south;rounded=0;shadow=0;comic=0;fontFamily=Verdana;fontSize=12;" parent="1" vertex="1">
          <mxGeometry x="1552" y="727" width="10" height="18" as="geometry" />
        </mxCell>
        <mxCell id="48ef80bc37b76060-352" value="" style="verticalLabelPosition=bottom;html=1;verticalAlign=top;align=center;strokeWidth=1;shape=mxgraph.floorplan.wall;fillColor=#000000;direction=south;rounded=0;shadow=0;comic=0;fontFamily=Verdana;fontSize=12;" parent="1" vertex="1">
          <mxGeometry x="1552" y="637" width="10" height="9" as="geometry" />
        </mxCell>
        <mxCell id="48ef80bc37b76060-354" value="" style="verticalLabelPosition=bottom;html=1;verticalAlign=top;align=center;strokeWidth=1;shape=mxgraph.floorplan.sink_2;rounded=0;shadow=0;comic=0;fontFamily=Verdana;fontSize=12;rotation=90;" parent="1" vertex="1">
          <mxGeometry x="1648" y="649" width="40" height="35" as="geometry" />
        </mxCell>
        <mxCell id="48ef80bc37b76060-355" value="" style="verticalLabelPosition=bottom;html=1;verticalAlign=top;align=center;strokeWidth=1;shape=mxgraph.floorplan.sink_2;rounded=0;shadow=0;comic=0;fontFamily=Verdana;fontSize=12;rotation=90;" parent="1" vertex="1">
          <mxGeometry x="1648" y="693" width="40" height="35" as="geometry" />
        </mxCell>
        <mxCell id="48ef80bc37b76060-358" value="" style="verticalLabelPosition=bottom;html=1;verticalAlign=top;align=center;strokeWidth=1;shape=mxgraph.floorplan.doorRight;rounded=0;shadow=0;comic=0;fontFamily=Verdana;fontSize=12;rotation=90;" parent="1" vertex="1">
          <mxGeometry x="1611" y="743" width="80" height="85" as="geometry" />
        </mxCell>
        <mxCell id="48ef80bc37b76060-359" value="" style="verticalLabelPosition=bottom;html=1;verticalAlign=top;align=center;strokeWidth=1;shape=mxgraph.floorplan.wallCorner;fillColor=#000000;direction=south;rounded=0;shadow=0;comic=0;fontFamily=Verdana;fontSize=12;" parent="1" vertex="1">
          <mxGeometry x="1370" y="631" width="326" height="114" as="geometry" />
        </mxCell>
        <mxCell id="48ef80bc37b76060-360" value="" style="verticalLabelPosition=bottom;html=1;verticalAlign=top;align=center;strokeWidth=1;shape=mxgraph.floorplan.doorLeft;rounded=0;shadow=0;comic=0;fillColor=#FFFFFF;fontFamily=Verdana;fontSize=12;rotation=90;" parent="1" vertex="1">
          <mxGeometry x="1477" y="840" width="80" height="85" as="geometry" />
        </mxCell>
        <mxCell id="48ef80bc37b76060-361" value="" style="verticalLabelPosition=bottom;html=1;verticalAlign=top;align=center;strokeWidth=1;shape=mxgraph.floorplan.wall;fillColor=#000000;direction=south;rounded=0;shadow=0;comic=0;fontFamily=Verdana;fontSize=12;" parent="1" vertex="1">
          <mxGeometry x="1552" y="826" width="10" height="16" as="geometry" />
        </mxCell>
        <mxCell id="48ef80bc37b76060-362" value="" style="verticalLabelPosition=bottom;html=1;verticalAlign=top;align=center;strokeWidth=1;shape=mxgraph.floorplan.wall;fillColor=#000000;rounded=0;shadow=0;comic=0;fontFamily=Verdana;fontSize=12;" parent="1" vertex="1">
          <mxGeometry x="1373" y="926" width="180" height="10" as="geometry" />
        </mxCell>
        <mxCell id="48ef80bc37b76060-363" value="" style="verticalLabelPosition=bottom;html=1;verticalAlign=top;align=center;strokeWidth=1;shape=mxgraph.floorplan.wall;fillColor=#000000;direction=south;rounded=0;shadow=0;comic=0;fontFamily=Verdana;fontSize=12;" parent="1" vertex="1">
          <mxGeometry x="1552" y="923" width="10" height="18" as="geometry" />
        </mxCell>
        <mxCell id="48ef80bc37b76060-364" value="" style="verticalLabelPosition=bottom;html=1;verticalAlign=top;align=center;strokeWidth=1;shape=mxgraph.floorplan.doorLeft;rounded=0;shadow=0;comic=0;fillColor=#FFFFFF;fontFamily=Verdana;fontSize=12;rotation=90;" parent="1" vertex="1">
          <mxGeometry x="1477" y="939" width="80" height="85" as="geometry" />
        </mxCell>
        <mxCell id="48ef80bc37b76060-365" value="" style="verticalLabelPosition=bottom;html=1;verticalAlign=top;align=center;strokeWidth=1;shape=mxgraph.floorplan.wall;fillColor=#000000;direction=south;rounded=0;shadow=0;comic=0;fontFamily=Verdana;fontSize=12;" parent="1" vertex="1">
          <mxGeometry x="1552" y="1017" width="10" height="10" as="geometry" />
        </mxCell>
        <mxCell id="48ef80bc37b76060-366" value="" style="verticalLabelPosition=bottom;html=1;verticalAlign=top;align=center;strokeWidth=1;shape=mxgraph.floorplan.wallCorner;fillColor=#000000;direction=west;rounded=0;shadow=0;comic=0;fontFamily=Verdana;fontSize=12;" parent="1" vertex="1">
          <mxGeometry x="1373" y="925" width="323" height="110" as="geometry" />
        </mxCell>
        <mxCell id="48ef80bc37b76060-367" value="" style="verticalLabelPosition=bottom;html=1;verticalAlign=top;align=center;strokeWidth=1;shape=mxgraph.floorplan.toilet;rounded=0;shadow=0;comic=0;fontFamily=Verdana;fontSize=12;rotation=-90;" parent="1" vertex="1">
          <mxGeometry x="1389" y="850" width="50" height="67" as="geometry" />
        </mxCell>
        <mxCell id="48ef80bc37b76060-368" value="" style="verticalLabelPosition=bottom;html=1;verticalAlign=top;align=center;strokeWidth=1;shape=mxgraph.floorplan.toilet;rounded=0;shadow=0;comic=0;fontFamily=Verdana;fontSize=12;rotation=-90;" parent="1" vertex="1">
          <mxGeometry x="1389" y="949" width="50" height="67" as="geometry" />
        </mxCell>
        <mxCell id="48ef80bc37b76060-369" value="" style="verticalLabelPosition=bottom;html=1;verticalAlign=top;align=center;strokeWidth=1;shape=mxgraph.floorplan.sink_2;rounded=0;shadow=0;comic=0;fontFamily=Verdana;fontSize=12;rotation=90;" parent="1" vertex="1">
          <mxGeometry x="1648" y="942" width="40" height="35" as="geometry" />
        </mxCell>
        <mxCell id="48ef80bc37b76060-370" value="" style="verticalLabelPosition=bottom;html=1;verticalAlign=top;align=center;strokeWidth=1;shape=mxgraph.floorplan.sink_2;rounded=0;shadow=0;comic=0;fontFamily=Verdana;fontSize=12;rotation=90;" parent="1" vertex="1">
          <mxGeometry x="1648" y="986" width="40" height="35" as="geometry" />
        </mxCell>
        <mxCell id="48ef80bc37b76060-371" value="" style="verticalLabelPosition=bottom;html=1;verticalAlign=top;align=center;strokeWidth=1;shape=mxgraph.floorplan.doorRight;rounded=0;shadow=0;comic=0;fontFamily=Verdana;fontSize=12;rotation=90;flipV=0;flipH=1;" parent="1" vertex="1">
          <mxGeometry x="1611" y="842" width="80" height="85" as="geometry" />
        </mxCell>
        <mxCell id="48ef80bc37b76060-372" value="" style="verticalLabelPosition=bottom;html=1;verticalAlign=top;align=center;strokeWidth=1;shape=mxgraph.floorplan.wall;fillColor=#000000;direction=south;rounded=0;shadow=0;comic=0;fontFamily=Verdana;fontSize=12;" parent="1" vertex="1">
          <mxGeometry x="1686" y="834" width="10" height="10" as="geometry" />
        </mxCell>
        <mxCell id="48ef80bc37b76060-373" value="" style="verticalLabelPosition=bottom;html=1;verticalAlign=top;align=center;strokeWidth=1;shape=mxgraph.floorplan.wall;fillColor=#000000;rounded=0;shadow=0;comic=0;fontFamily=Verdana;fontSize=12;" parent="1" vertex="1">
          <mxGeometry x="1873" y="631" width="220" height="10" as="geometry" />
        </mxCell>
        <mxCell id="48ef80bc37b76060-374" value="" style="verticalLabelPosition=bottom;html=1;verticalAlign=top;align=center;strokeWidth=1;shape=mxgraph.floorplan.chair;shadow=0;rounded=0;comic=0;fontFamily=Verdana;fontSize=12;" parent="1" vertex="1">
          <mxGeometry x="1974" y="680" width="40" height="52" as="geometry" />
        </mxCell>
        <mxCell id="48ef80bc37b76060-375" value="" style="verticalLabelPosition=bottom;html=1;verticalAlign=top;align=center;strokeWidth=1;shape=mxgraph.floorplan.chair;shadow=0;direction=west;rounded=0;comic=0;fontFamily=Verdana;fontSize=12;" parent="1" vertex="1">
          <mxGeometry x="1974" y="768" width="40" height="52" as="geometry" />
        </mxCell>
        <mxCell id="48ef80bc37b76060-376" value="" style="verticalLabelPosition=bottom;html=1;verticalAlign=top;align=center;strokeWidth=1;shape=mxgraph.floorplan.chair;shadow=0;direction=north;rounded=0;comic=0;fontFamily=Verdana;fontSize=12;" parent="1" vertex="1">
          <mxGeometry x="1924" y="730" width="52" height="40" as="geometry" />
        </mxCell>
        <mxCell id="48ef80bc37b76060-377" value="" style="verticalLabelPosition=bottom;html=1;verticalAlign=top;align=center;strokeWidth=1;shape=mxgraph.floorplan.chair;shadow=0;direction=south;rounded=0;comic=0;fontFamily=Verdana;fontSize=12;" parent="1" vertex="1">
          <mxGeometry x="2012" y="730" width="52" height="40" as="geometry" />
        </mxCell>
        <mxCell id="48ef80bc37b76060-378" value="" style="shape=ellipse;shadow=0;rounded=0;comic=0;fontFamily=Verdana;fontSize=12;align=center;html=1;" parent="1" vertex="1">
          <mxGeometry x="1944" y="700" width="100" height="100" as="geometry" />
        </mxCell>
        <mxCell id="48ef80bc37b76060-379" value="" style="verticalLabelPosition=bottom;html=1;verticalAlign=top;align=center;strokeWidth=1;shape=mxgraph.floorplan.chair;shadow=0;rounded=0;comic=0;fontFamily=Verdana;fontSize=12;" parent="1" vertex="1">
          <mxGeometry x="1969" y="869" width="40" height="52" as="geometry" />
        </mxCell>
        <mxCell id="48ef80bc37b76060-380" value="" style="verticalLabelPosition=bottom;html=1;verticalAlign=top;align=center;strokeWidth=1;shape=mxgraph.floorplan.chair;shadow=0;direction=west;rounded=0;comic=0;fontFamily=Verdana;fontSize=12;" parent="1" vertex="1">
          <mxGeometry x="1969" y="957" width="40" height="52" as="geometry" />
        </mxCell>
        <mxCell id="48ef80bc37b76060-381" value="" style="verticalLabelPosition=bottom;html=1;verticalAlign=top;align=center;strokeWidth=1;shape=mxgraph.floorplan.chair;shadow=0;direction=north;rounded=0;comic=0;fontFamily=Verdana;fontSize=12;" parent="1" vertex="1">
          <mxGeometry x="1919" y="919" width="52" height="40" as="geometry" />
        </mxCell>
        <mxCell id="48ef80bc37b76060-382" value="" style="verticalLabelPosition=bottom;html=1;verticalAlign=top;align=center;strokeWidth=1;shape=mxgraph.floorplan.chair;shadow=0;direction=south;rounded=0;comic=0;fontFamily=Verdana;fontSize=12;" parent="1" vertex="1">
          <mxGeometry x="2007" y="919" width="52" height="40" as="geometry" />
        </mxCell>
        <mxCell id="48ef80bc37b76060-383" value="" style="shape=ellipse;shadow=0;rounded=0;comic=0;fontFamily=Verdana;fontSize=12;align=center;html=1;" parent="1" vertex="1">
          <mxGeometry x="1939" y="889" width="100" height="100" as="geometry" />
        </mxCell>
        <mxCell id="48ef80bc37b76060-385" value="" style="verticalLabelPosition=bottom;html=1;verticalAlign=top;align=center;strokeWidth=1;shape=mxgraph.floorplan.refrigerator;rounded=0;shadow=0;comic=0;fontFamily=Verdana;fontSize=12;rotation=90;flipV=0;flipH=1;" parent="1" vertex="1">
          <mxGeometry x="2423" y="702" width="60" height="62" as="geometry" />
        </mxCell>
        <mxCell id="48ef80bc37b76060-386" value="" style="verticalLabelPosition=bottom;html=1;verticalAlign=top;align=center;strokeWidth=1;shape=mxgraph.floorplan.refrigerator;rounded=0;shadow=0;comic=0;fontFamily=Verdana;fontSize=12;rotation=90;" parent="1" vertex="1">
          <mxGeometry x="2423" y="642" width="60" height="62" as="geometry" />
        </mxCell>
        <mxCell id="48ef80bc37b76060-387" value="" style="verticalLabelPosition=bottom;html=1;verticalAlign=top;align=center;strokeWidth=1;shape=mxgraph.floorplan.range_2;rounded=0;shadow=0;comic=0;fontFamily=Verdana;fontSize=12;rotation=90;" parent="1" vertex="1">
          <mxGeometry x="2416" y="771" width="75" height="62" as="geometry" />
        </mxCell>
        <mxCell id="48ef80bc37b76060-388" value="" style="verticalLabelPosition=bottom;html=1;verticalAlign=top;align=center;strokeWidth=1;shape=mxgraph.floorplan.sink_double;rounded=0;shadow=0;comic=0;fontFamily=Verdana;fontSize=12;flipV=1;" parent="1" vertex="1">
          <mxGeometry x="2292" y="888" width="80" height="35" as="geometry" />
        </mxCell>
        <mxCell id="48ef80bc37b76060-390" value="" style="verticalLabelPosition=bottom;html=1;verticalAlign=top;align=center;strokeWidth=1;shape=mxgraph.floorplan.dresser;rounded=0;shadow=0;comic=0;fontFamily=Verdana;fontSize=12;flipV=1;" parent="1" vertex="1">
          <mxGeometry x="2192" y="872" width="100" height="65" as="geometry" />
        </mxCell>
        <mxCell id="48ef80bc37b76060-391" value="" style="verticalLabelPosition=bottom;html=1;verticalAlign=top;align=center;strokeWidth=1;shape=mxgraph.floorplan.wallCorner;fillColor=#000000;direction=north;rounded=0;shadow=0;comic=0;fontFamily=Verdana;fontSize=12;" parent="1" vertex="1">
          <mxGeometry x="2181" y="817" width="312" height="120" as="geometry" />
        </mxCell>
        <mxCell id="48ef80bc37b76060-392" value="" style="verticalLabelPosition=bottom;html=1;verticalAlign=top;align=center;strokeWidth=1;shape=mxgraph.floorplan.doorLeft;rounded=0;shadow=0;comic=0;fontFamily=Verdana;fontSize=12;" parent="1" vertex="1">
          <mxGeometry x="2194" y="633" width="80" height="85" as="geometry" />
        </mxCell>
        <mxCell id="48ef80bc37b76060-393" value="" style="verticalLabelPosition=bottom;html=1;verticalAlign=top;align=center;strokeWidth=1;shape=mxgraph.floorplan.doorRight;rounded=0;shadow=0;comic=0;fontFamily=Verdana;fontSize=12;rotation=-90;" parent="1" vertex="1">
          <mxGeometry x="2186" y="734" width="80" height="85" as="geometry" />
        </mxCell>
        <mxCell id="48ef80bc37b76060-394" value="" style="verticalLabelPosition=bottom;html=1;verticalAlign=top;align=center;strokeWidth=1;shape=mxgraph.floorplan.doorRight;rounded=0;shadow=0;comic=0;fontFamily=Verdana;fontSize=12;rotation=-90;" parent="1" vertex="1">
          <mxGeometry x="2322" y="941" width="80" height="78" as="geometry" />
        </mxCell>
        <mxCell id="48ef80bc37b76060-395" value="" style="verticalLabelPosition=bottom;html=1;verticalAlign=top;align=center;strokeWidth=1;shape=mxgraph.floorplan.sink_1;rounded=0;shadow=0;comic=0;fontFamily=Verdana;fontSize=12;rotation=90;" parent="1" vertex="1">
          <mxGeometry x="2447" y="961" width="40" height="35" as="geometry" />
        </mxCell>
        <mxCell id="48ef80bc37b76060-396" value="" style="verticalLabelPosition=bottom;html=1;verticalAlign=top;align=center;strokeWidth=1;shape=mxgraph.floorplan.wall;fillColor=#000000;rounded=0;shadow=0;comic=0;fontFamily=Verdana;fontSize=12;" parent="1" vertex="1">
          <mxGeometry x="2174" y="631" width="20" height="10" as="geometry" />
        </mxCell>
        <mxCell id="48ef80bc37b76060-397" value="" style="verticalLabelPosition=bottom;html=1;verticalAlign=top;align=center;strokeWidth=1;shape=mxgraph.floorplan.doorRight;rounded=0;shadow=0;comic=0;fontFamily=Verdana;fontSize=12;" parent="1" vertex="1">
          <mxGeometry x="2094" y="633" width="80" height="85" as="geometry" />
        </mxCell>
        <mxCell id="48ef80bc37b76060-398" value="" style="verticalLabelPosition=bottom;html=1;verticalAlign=top;align=center;strokeWidth=1;shape=mxgraph.floorplan.wall;fillColor=#000000;direction=south;rounded=0;shadow=0;comic=0;fontFamily=Verdana;fontSize=12;" parent="1" vertex="1">
          <mxGeometry x="2181" y="637" width="10" height="100" as="geometry" />
        </mxCell>
        <mxCell id="48ef80bc37b76060-399" value="" style="verticalLabelPosition=bottom;html=1;verticalAlign=top;align=center;strokeWidth=1;shape=mxgraph.floorplan.wall;fillColor=#000000;direction=south;rounded=0;shadow=0;comic=0;fontFamily=Verdana;fontSize=12;" parent="1" vertex="1">
          <mxGeometry x="2320" y="927" width="10" height="13" as="geometry" />
        </mxCell>
        <mxCell id="48ef80bc37b76060-400" value="" style="verticalLabelPosition=bottom;html=1;verticalAlign=top;align=center;strokeWidth=1;shape=mxgraph.floorplan.wall;fillColor=#000000;direction=south;rounded=0;shadow=0;comic=0;fontFamily=Verdana;fontSize=12;" parent="1" vertex="1">
          <mxGeometry x="2321" y="1020" width="10" height="13" as="geometry" />
        </mxCell>
        <mxCell id="48ef80bc37b76060-7" value="" style="verticalLabelPosition=bottom;html=1;verticalAlign=top;align=center;strokeWidth=1;shape=mxgraph.floorplan.office_chair;shadow=0;rounded=0;comic=0;fontFamily=Verdana;fontSize=12;" parent="1" vertex="1">
          <mxGeometry x="1387" y="1372" width="40" height="43" as="geometry" />
        </mxCell>
        <mxCell id="48ef80bc37b76060-8" value="" style="shape=rect;shadow=0;rounded=0;comic=0;fontFamily=Verdana;fontSize=12;align=center;html=1;" parent="1" vertex="1">
          <mxGeometry x="1367" y="1392" width="80" height="50" as="geometry" />
        </mxCell>
        <mxCell id="48ef80bc37b76060-9" value="" style="verticalLabelPosition=bottom;html=1;verticalAlign=top;align=center;strokeWidth=1;shape=mxgraph.floorplan.workstation;shadow=0;flipV=1;rounded=0;comic=0;fontFamily=Verdana;fontSize=12;" parent="1" vertex="1">
          <mxGeometry x="1382" y="1402" width="50" height="40" as="geometry" />
        </mxCell>
      </root>
    </mxGraphModel>
  </diagram>
  <diagram id="7OiXBz4lteN5fWdAw6F8" name="Great Room">
    <mxGraphModel dx="1611" dy="958" grid="1" gridSize="7.874" guides="1" tooltips="1" connect="1" arrows="1" fold="1" page="1" pageScale="1" pageWidth="1100" pageHeight="850" math="0" shadow="0">
      <root>
        <mxCell id="0" />
        <mxCell id="X-LWcTQIQv4BbCj4w9fg-14" value="Outline" style="" parent="0" />
        <mxCell id="X-LWcTQIQv4BbCj4w9fg-15" value="" style="group" vertex="1" connectable="0" parent="X-LWcTQIQv4BbCj4w9fg-14">
          <mxGeometry x="39.368" y="39.37" width="799.213" height="751.967" as="geometry" />
        </mxCell>
        <mxCell id="X-LWcTQIQv4BbCj4w9fg-16" value="" style="endArrow=none;html=1;rounded=0;strokeWidth=1.9685;jumpSize=3.937;arcSize=0;" edge="1" parent="X-LWcTQIQv4BbCj4w9fg-15">
          <mxGeometry width="50" height="50" relative="1" as="geometry">
            <mxPoint x="0.001999999999995339" as="sourcePoint" />
            <mxPoint x="0.001999999999995339" y="27.559000000000005" as="targetPoint" />
          </mxGeometry>
        </mxCell>
        <mxCell id="X-LWcTQIQv4BbCj4w9fg-18" value="" style="endArrow=none;html=1;rounded=0;strokeWidth=1.9685;jumpSize=3.937;arcSize=0;" edge="1" parent="X-LWcTQIQv4BbCj4w9fg-15">
          <mxGeometry width="50" height="50" relative="1" as="geometry">
            <mxPoint as="sourcePoint" />
            <mxPoint y="751.967" as="targetPoint" />
          </mxGeometry>
        </mxCell>
        <mxCell id="X-LWcTQIQv4BbCj4w9fg-17" value="" style="endArrow=none;html=1;rounded=0;strokeWidth=1.9685;jumpSize=3.937;arcSize=0;fillColor=#dae8fc;strokeColor=#6c8ebf;" edge="1" parent="X-LWcTQIQv4BbCj4w9fg-15">
          <mxGeometry width="50" height="50" relative="1" as="geometry">
            <mxPoint x="0.006000000000000227" y="27.559000000000005" as="sourcePoint" />
            <mxPoint x="0.006000000000000227" y="133.85799999999998" as="targetPoint" />
          </mxGeometry>
        </mxCell>
        <mxCell id="X-LWcTQIQv4BbCj4w9fg-19" value="" style="endArrow=none;html=1;rounded=0;strokeWidth=1.9685;jumpSize=3.937;arcSize=0;" edge="1" parent="X-LWcTQIQv4BbCj4w9fg-15">
          <mxGeometry width="50" height="50" relative="1" as="geometry">
            <mxPoint x="0.001999999999995339" y="751.967" as="sourcePoint" />
            <mxPoint x="799.213" y="751.967" as="targetPoint" />
          </mxGeometry>
        </mxCell>
        <mxCell id="X-LWcTQIQv4BbCj4w9fg-20" value="" style="endArrow=none;html=1;rounded=0;strokeWidth=1.9685;jumpSize=3.937;arcSize=0;fillColor=#dae8fc;strokeColor=#6c8ebf;" edge="1" parent="X-LWcTQIQv4BbCj4w9fg-15">
          <mxGeometry width="50" height="50" relative="1" as="geometry">
            <mxPoint x="200.789" y="751.967" as="sourcePoint" />
            <mxPoint x="598.4259999999999" y="751.967" as="targetPoint" />
          </mxGeometry>
        </mxCell>
        <mxCell id="X-LWcTQIQv4BbCj4w9fg-21" value="" style="endArrow=none;html=1;rounded=0;strokeWidth=1.9685;jumpSize=3.937;arcSize=0;" edge="1" parent="X-LWcTQIQv4BbCj4w9fg-15">
          <mxGeometry width="50" height="50" relative="1" as="geometry">
            <mxPoint x="799.213" as="sourcePoint" />
            <mxPoint x="799.213" y="751.967" as="targetPoint" />
          </mxGeometry>
        </mxCell>
        <mxCell id="X-LWcTQIQv4BbCj4w9fg-22" value="" style="endArrow=none;html=1;rounded=0;strokeWidth=1.9685;jumpSize=3.937;arcSize=0;fillColor=#f8cecc;strokeColor=#b85450;" edge="1" parent="X-LWcTQIQv4BbCj4w9fg-15">
          <mxGeometry width="50" height="50" relative="1" as="geometry">
            <mxPoint x="799.213" y="82.67699999999999" as="sourcePoint" />
            <mxPoint x="799.213" y="342.519" as="targetPoint" />
          </mxGeometry>
        </mxCell>
        <mxCell id="X-LWcTQIQv4BbCj4w9fg-23" value="" style="endArrow=none;html=1;rounded=0;strokeWidth=1.9685;jumpSize=3.937;arcSize=0;" edge="1" parent="X-LWcTQIQv4BbCj4w9fg-15">
          <mxGeometry width="50" height="50" relative="1" as="geometry">
            <mxPoint x="0.006000000000000227" y="0.0009999999999834586" as="sourcePoint" />
            <mxPoint x="799.213" y="0.0009999999999834586" as="targetPoint" />
          </mxGeometry>
        </mxCell>
        <mxCell id="X-LWcTQIQv4BbCj4w9fg-24" value="" style="endArrow=none;html=1;rounded=0;strokeWidth=1.9685;jumpSize=3.937;arcSize=0;fillColor=#f8cecc;strokeColor=#b85450;" edge="1" parent="X-LWcTQIQv4BbCj4w9fg-15">
          <mxGeometry width="50" height="50" relative="1" as="geometry">
            <mxPoint x="307.08799999999997" y="0.0009999999999976694" as="sourcePoint" />
            <mxPoint x="688.9769999999999" as="targetPoint" />
          </mxGeometry>
        </mxCell>
        <mxCell id="X-LWcTQIQv4BbCj4w9fg-25" value="" style="endArrow=none;html=1;rounded=0;strokeWidth=1.9685;jumpSize=3.937;arcSize=0;fillColor=#dae8fc;strokeColor=#6c8ebf;" edge="1" parent="X-LWcTQIQv4BbCj4w9fg-15">
          <mxGeometry width="50" height="50" relative="1" as="geometry">
            <mxPoint x="23.620000000000005" y="0.0030000000000001137" as="sourcePoint" />
            <mxPoint x="129.923" as="targetPoint" />
          </mxGeometry>
        </mxCell>
        <mxCell id="X-LWcTQIQv4BbCj4w9fg-13" value="Stuff" style="" parent="0" />
      </root>
    </mxGraphModel>
  </diagram>
  <diagram id="6WHG2KJH_9yivIMUArQ9" name="Dining Room">
    <mxGraphModel dx="1611" dy="958" grid="1" gridSize="7.874" guides="1" tooltips="1" connect="1" arrows="1" fold="1" page="1" pageScale="1" pageWidth="1100" pageHeight="850" math="0" shadow="0">
      <root>
        <mxCell id="0" />
        <mxCell id="1" value="Outline" style="" parent="0" />
        <mxCell id="OUyfe4-cnmWQnVUR4dgq-1" value="" style="group" vertex="1" connectable="0" parent="1">
          <mxGeometry x="39.368" y="39.37" width="799.213" height="751.967" as="geometry" />
        </mxCell>
        <mxCell id="OUyfe4-cnmWQnVUR4dgq-4" value="" style="endArrow=none;html=1;rounded=0;strokeWidth=1.9685;jumpSize=3.937;arcSize=0;" edge="1" parent="OUyfe4-cnmWQnVUR4dgq-1">
          <mxGeometry width="50" height="50" relative="1" as="geometry">
            <mxPoint x="188.976" as="sourcePoint" />
            <mxPoint x="188.976" y="598.424" as="targetPoint" />
          </mxGeometry>
        </mxCell>
        <mxCell id="OUyfe4-cnmWQnVUR4dgq-5" value="" style="endArrow=none;html=1;rounded=0;strokeWidth=1.9685;jumpSize=3.937;arcSize=0;" edge="1" parent="OUyfe4-cnmWQnVUR4dgq-1">
          <mxGeometry width="50" height="50" relative="1" as="geometry">
            <mxPoint x="188.976" y="598.424" as="sourcePoint" />
            <mxPoint x="799.211" y="598.424" as="targetPoint" />
          </mxGeometry>
        </mxCell>
        <mxCell id="OUyfe4-cnmWQnVUR4dgq-7" value="" style="endArrow=none;html=1;rounded=0;strokeWidth=1.9685;jumpSize=3.937;arcSize=0;" edge="1" parent="OUyfe4-cnmWQnVUR4dgq-1">
          <mxGeometry width="50" height="50" relative="1" as="geometry">
            <mxPoint x="799.211" as="sourcePoint" />
            <mxPoint x="799.211" y="598.424" as="targetPoint" />
          </mxGeometry>
        </mxCell>
        <mxCell id="OUyfe4-cnmWQnVUR4dgq-8" value="" style="endArrow=none;html=1;rounded=0;strokeWidth=1.9685;jumpSize=3.937;arcSize=0;fillColor=#f8cecc;strokeColor=#b85450;" edge="1" parent="OUyfe4-cnmWQnVUR4dgq-1">
          <mxGeometry width="50" height="50" relative="1" as="geometry">
            <mxPoint x="799.211" y="82.67699999999999" as="sourcePoint" />
            <mxPoint x="799.211" y="228.346" as="targetPoint" />
          </mxGeometry>
        </mxCell>
        <mxCell id="OUyfe4-cnmWQnVUR4dgq-9" value="" style="endArrow=none;html=1;rounded=0;strokeWidth=1.9685;jumpSize=3.937;arcSize=0;" edge="1" parent="OUyfe4-cnmWQnVUR4dgq-1">
          <mxGeometry width="50" height="50" relative="1" as="geometry">
            <mxPoint x="188.976" y="0.0009999999999834586" as="sourcePoint" />
            <mxPoint x="799.211" y="0.0009999999999834586" as="targetPoint" />
          </mxGeometry>
        </mxCell>
        <mxCell id="OUyfe4-cnmWQnVUR4dgq-11" value="" style="endArrow=none;html=1;rounded=0;strokeWidth=1.9685;jumpSize=3.937;arcSize=0;fillColor=#dae8fc;strokeColor=#6c8ebf;" edge="1" parent="OUyfe4-cnmWQnVUR4dgq-1">
          <mxGeometry width="50" height="50" relative="1" as="geometry">
            <mxPoint x="346.45599999999996" y="0.0030000000000001137" as="sourcePoint" />
            <mxPoint x="641.731" as="targetPoint" />
          </mxGeometry>
        </mxCell>
        <mxCell id="OUyfe4-cnmWQnVUR4dgq-10" value="" style="endArrow=none;html=1;rounded=0;strokeWidth=1.9685;jumpSize=3.937;arcSize=0;fillColor=#f8cecc;strokeColor=#b85450;" edge="1" parent="OUyfe4-cnmWQnVUR4dgq-1">
          <mxGeometry width="50" height="50" relative="1" as="geometry">
            <mxPoint x="303.149" y="598.424" as="sourcePoint" />
            <mxPoint x="681.101" y="598.424" as="targetPoint" />
          </mxGeometry>
        </mxCell>
        <mxCell id="bzsgkAHbpMXt-jNvgv1b-1" value="stuff" style="locked=1;" parent="0" />
      </root>
    </mxGraphModel>
  </diagram>
  <diagram id="ZGVFQyWY91XPvBD8xeqW" name="master bed">
    <mxGraphModel dx="1637" dy="1028" grid="1" gridSize="7.874" guides="1" tooltips="1" connect="1" arrows="1" fold="1" page="1" pageScale="1" pageWidth="1100" pageHeight="850" math="0" shadow="0">
      <root>
        <mxCell id="0" />
        <mxCell id="1" value="outline" style="locked=1;" parent="0" />
        <mxCell id="m4J0eT85swsNnL5zQrMi-1" value="" style="group" vertex="1" connectable="0" parent="1">
          <mxGeometry x="39.367999999999995" y="15.748" width="1031.632" height="803.252" as="geometry" />
        </mxCell>
        <mxCell id="5h2DuEODTdKISfyhnIiN-1" value="" style="endArrow=none;html=1;rounded=0;strokeWidth=1.9685;jumpSize=3.937;arcSize=0;" edge="1" parent="m4J0eT85swsNnL5zQrMi-1">
          <mxGeometry width="50" height="50" relative="1" as="geometry">
            <mxPoint x="0.0020000000000024443" y="803.1479999999999" as="sourcePoint" />
            <mxPoint x="1003.935" y="803.252" as="targetPoint" />
          </mxGeometry>
        </mxCell>
        <mxCell id="5h2DuEODTdKISfyhnIiN-2" value="" style="endArrow=none;html=1;rounded=0;strokeWidth=1.9685;jumpSize=3.937;arcSize=0;" edge="1" parent="m4J0eT85swsNnL5zQrMi-1">
          <mxGeometry width="50" height="50" relative="1" as="geometry">
            <mxPoint x="0.0020000000000024443" y="208.661" as="sourcePoint" />
            <mxPoint x="633.857" y="208.661" as="targetPoint" />
          </mxGeometry>
        </mxCell>
        <mxCell id="5h2DuEODTdKISfyhnIiN-3" value="" style="endArrow=none;html=1;rounded=0;strokeWidth=1.9685;jumpSize=3.937;arcSize=0;" edge="1" parent="m4J0eT85swsNnL5zQrMi-1">
          <mxGeometry width="50" height="50" relative="1" as="geometry">
            <mxPoint x="0.0020000000000024443" y="208.661" as="sourcePoint" />
            <mxPoint x="0.0020000000000024443" y="803.1479999999999" as="targetPoint" />
          </mxGeometry>
        </mxCell>
        <mxCell id="5h2DuEODTdKISfyhnIiN-4" value="" style="endArrow=none;html=1;rounded=0;strokeWidth=1.9685;jumpSize=3.937;arcSize=0;" edge="1" parent="m4J0eT85swsNnL5zQrMi-1">
          <mxGeometry width="50" height="50" relative="1" as="geometry">
            <mxPoint x="634.363" as="sourcePoint" />
            <mxPoint x="634.363" y="208.661" as="targetPoint" />
          </mxGeometry>
        </mxCell>
        <mxCell id="5h2DuEODTdKISfyhnIiN-5" value="" style="endArrow=none;html=1;rounded=0;strokeWidth=1.9685;jumpSize=3.937;arcSize=0;" edge="1" parent="m4J0eT85swsNnL5zQrMi-1">
          <mxGeometry width="50" height="50" relative="1" as="geometry">
            <mxPoint x="634.363" as="sourcePoint" />
            <mxPoint x="870.5829999999999" as="targetPoint" />
          </mxGeometry>
        </mxCell>
        <mxCell id="5h2DuEODTdKISfyhnIiN-6" value="" style="endArrow=none;html=1;rounded=0;strokeWidth=1.9685;jumpSize=3.937;arcSize=0;" edge="1" parent="m4J0eT85swsNnL5zQrMi-1">
          <mxGeometry width="50" height="50" relative="1" as="geometry">
            <mxPoint x="870.5829999999999" as="sourcePoint" />
            <mxPoint x="870.5829999999999" y="149.606" as="targetPoint" />
          </mxGeometry>
        </mxCell>
        <mxCell id="5h2DuEODTdKISfyhnIiN-7" value="" style="endArrow=none;html=1;rounded=0;strokeWidth=1.9685;jumpSize=3.937;arcSize=0;" edge="1" parent="m4J0eT85swsNnL5zQrMi-1">
          <mxGeometry width="50" height="50" relative="1" as="geometry">
            <mxPoint x="870.5829999999999" y="149.606" as="sourcePoint" />
            <mxPoint x="909.953" y="149.606" as="targetPoint" />
          </mxGeometry>
        </mxCell>
        <mxCell id="5h2DuEODTdKISfyhnIiN-8" value="" style="endArrow=none;html=1;rounded=0;strokeWidth=1.9685;jumpSize=3.937;arcSize=0;" edge="1" parent="m4J0eT85swsNnL5zQrMi-1">
          <mxGeometry width="50" height="50" relative="1" as="geometry">
            <mxPoint x="909.447" y="149.606" as="sourcePoint" />
            <mxPoint x="909.447" y="452.755" as="targetPoint" />
          </mxGeometry>
        </mxCell>
        <mxCell id="wYPbVds_XAQuslVGpwps-1" value="" style="endArrow=none;html=1;rounded=0;strokeWidth=1.9685;jumpSize=3.937;arcSize=0;fillColor=#f8cecc;strokeColor=#b85450;" edge="1" parent="m4J0eT85swsNnL5zQrMi-1">
          <mxGeometry width="50" height="50" relative="1" as="geometry">
            <mxPoint x="909.447" y="149.606" as="sourcePoint" />
            <mxPoint x="909.447" y="283.464" as="targetPoint" />
          </mxGeometry>
        </mxCell>
        <mxCell id="wYPbVds_XAQuslVGpwps-2" value="" style="endArrow=none;html=1;rounded=0;strokeWidth=1.9685;jumpSize=3.937;arcSize=0;" edge="1" parent="m4J0eT85swsNnL5zQrMi-1">
          <mxGeometry width="50" height="50" relative="1" as="geometry">
            <mxPoint x="909.447" y="452.755" as="sourcePoint" />
            <mxPoint x="1122.0449999999998" y="637.794" as="targetPoint" />
          </mxGeometry>
        </mxCell>
        <mxCell id="wYPbVds_XAQuslVGpwps-3" value="" style="endArrow=none;html=1;rounded=0;strokeWidth=1.9685;jumpSize=3.937;arcSize=0;fillColor=#f8cecc;strokeColor=#b85450;" edge="1" parent="m4J0eT85swsNnL5zQrMi-1">
          <mxGeometry width="50" height="50" relative="1" as="geometry">
            <mxPoint x="1122.0449999999998" y="637.794" as="sourcePoint" />
            <mxPoint x="1003.935" y="803.252" as="targetPoint" />
          </mxGeometry>
        </mxCell>
        <mxCell id="ej9OVqFRCM8FHcSE1Iw2-1" value="" style="endArrow=none;html=1;rounded=0;strokeWidth=1.9685;jumpSize=3.937;arcSize=0;fillColor=#dae8fc;strokeColor=#6c8ebf;" edge="1" parent="m4J0eT85swsNnL5zQrMi-1">
          <mxGeometry width="50" height="50" relative="1" as="geometry">
            <mxPoint x="179.1355" y="208.661" as="sourcePoint" />
            <mxPoint x="500.00100000000003" y="208.661" as="targetPoint" />
          </mxGeometry>
        </mxCell>
        <mxCell id="ej9OVqFRCM8FHcSE1Iw2-2" value="" style="endArrow=none;html=1;rounded=0;strokeWidth=1.9685;jumpSize=3.937;arcSize=0;fillColor=#dae8fc;strokeColor=#6c8ebf;" edge="1" parent="m4J0eT85swsNnL5zQrMi-1">
          <mxGeometry width="50" height="50" relative="1" as="geometry">
            <mxPoint y="232.283" as="sourcePoint" />
            <mxPoint x="0.0020000000000024443" y="334.645" as="targetPoint" />
          </mxGeometry>
        </mxCell>
        <mxCell id="0tK5uIv-c3e3OairfotX-3" value="current" style="locked=1;" parent="0" />
        <mxCell id="0tK5uIv-c3e3OairfotX-5" value="King Bed" style="rounded=0;whiteSpace=wrap;html=1;" vertex="1" parent="0tK5uIv-c3e3OairfotX-3">
          <mxGeometry x="285.4325" y="448.82" width="338.582" height="370.078" as="geometry" />
        </mxCell>
        <mxCell id="0tK5uIv-c3e3OairfotX-25" value="nightstand" style="rounded=0;whiteSpace=wrap;html=1;" vertex="1" parent="0tK5uIv-c3e3OairfotX-3">
          <mxGeometry x="196.8539999999999" y="732.2839999999999" width="86.61399999999999" height="78.74" as="geometry" />
        </mxCell>
        <mxCell id="0tK5uIv-c3e3OairfotX-26" value="sofa chair" style="rounded=0;whiteSpace=wrap;html=1;rotation=26;" vertex="1" parent="0tK5uIv-c3e3OairfotX-3">
          <mxGeometry x="78.7379999999999" y="622.0479999999999" width="125.984" height="141.732" as="geometry" />
        </mxCell>
        <mxCell id="0tK5uIv-c3e3OairfotX-47" value="big nightstand&lt;div&gt;&lt;br&gt;&lt;/div&gt;" style="rounded=0;whiteSpace=wrap;html=1;" vertex="1" parent="0tK5uIv-c3e3OairfotX-3">
          <mxGeometry x="47.24400000000001" y="456.6940000000001" width="62.992" height="98.425" as="geometry" />
        </mxCell>
        <mxCell id="0tK5uIv-c3e3OairfotX-48" value="nightstand" style="rounded=0;whiteSpace=wrap;html=1;" vertex="1" parent="0tK5uIv-c3e3OairfotX-3">
          <mxGeometry x="624.0179999999999" y="740.1579999999999" width="86.61399999999999" height="78.74" as="geometry" />
        </mxCell>
        <mxCell id="0tK5uIv-c3e3OairfotX-49" value="&lt;div&gt;Jewerly&lt;/div&gt;" style="rounded=0;whiteSpace=wrap;html=1;" vertex="1" parent="0tK5uIv-c3e3OairfotX-3">
          <mxGeometry x="590.548" y="236.2180000000001" width="74.803" height="59.055" as="geometry" />
        </mxCell>
        <mxCell id="0tK5uIv-c3e3OairfotX-50" value="ready desk" style="rounded=0;whiteSpace=wrap;html=1;" vertex="1" parent="0tK5uIv-c3e3OairfotX-3">
          <mxGeometry x="740.152" y="15.752000000000104" width="125.984" height="74.803" as="geometry" />
        </mxCell>
        <mxCell id="0tK5uIv-c3e3OairfotX-53" value="marco bed" style="rounded=0;whiteSpace=wrap;html=1;" vertex="1" parent="0tK5uIv-c3e3OairfotX-3">
          <mxGeometry x="795.2760000000001" y="307.08600000000007" width="149.606" height="157.48" as="geometry" />
        </mxCell>
        <mxCell id="0tK5uIv-c3e3OairfotX-52" value="Layout1" style="" parent="0" visible="0" />
        <mxCell id="0tK5uIv-c3e3OairfotX-54" value="King Bed" style="rounded=0;whiteSpace=wrap;html=1;" vertex="1" parent="0tK5uIv-c3e3OairfotX-52">
          <mxGeometry x="393.6965" y="448.824" width="338.582" height="370.078" as="geometry" />
        </mxCell>
        <mxCell id="0tK5uIv-c3e3OairfotX-55" value="nightstand" style="rounded=0;whiteSpace=wrap;html=1;" vertex="1" parent="0tK5uIv-c3e3OairfotX-52">
          <mxGeometry x="307.07799999999986" y="740.1579999999999" width="86.61399999999999" height="78.74" as="geometry" />
        </mxCell>
        <mxCell id="0tK5uIv-c3e3OairfotX-57" value="big nightstand&lt;div&gt;&lt;br&gt;&lt;/div&gt;" style="rounded=0;whiteSpace=wrap;html=1;" vertex="1" parent="0tK5uIv-c3e3OairfotX-52">
          <mxGeometry x="984.248" y="39.36800000000005" width="62.992" height="98.425" as="geometry" />
        </mxCell>
        <mxCell id="0tK5uIv-c3e3OairfotX-58" value="nightstand" style="rounded=0;whiteSpace=wrap;html=1;" vertex="1" parent="0tK5uIv-c3e3OairfotX-52">
          <mxGeometry x="732.28" y="740.16" width="86.61" height="78.74" as="geometry" />
        </mxCell>
        <mxCell id="0tK5uIv-c3e3OairfotX-59" value="&lt;div&gt;Jewerly&lt;/div&gt;" style="rounded=0;whiteSpace=wrap;html=1;rotation=-90;" vertex="1" parent="0tK5uIv-c3e3OairfotX-52">
          <mxGeometry x="31.49199999999999" y="543.3020000000001" width="74.803" height="59.055" as="geometry" />
        </mxCell>
        <mxCell id="0tK5uIv-c3e3OairfotX-61" value="marco bed" style="rounded=0;whiteSpace=wrap;html=1;rotation=-90;" vertex="1" parent="0tK5uIv-c3e3OairfotX-52">
          <mxGeometry x="47.24000000000014" y="661.4200000000001" width="149.606" height="157.48" as="geometry" />
        </mxCell>
        <mxCell id="0tK5uIv-c3e3OairfotX-66" value="" style="rounded=0;whiteSpace=wrap;html=1;" vertex="1" parent="0tK5uIv-c3e3OairfotX-52">
          <mxGeometry x="826.77" y="755.9" width="212.6" height="14.26" as="geometry" />
        </mxCell>
        <mxCell id="0tK5uIv-c3e3OairfotX-67" value="&lt;h1 style=&quot;margin-top: 0px;&quot;&gt;Desk Ideas&lt;/h1&gt;&lt;div&gt;with side drawers&lt;/div&gt;&lt;div&gt;&lt;a href=&quot;https://www.wayfair.com/furniture/pdp/millwood-pines-ausherman-desk-w000536059.html?piid=132915600&quot;&gt;https://www.wayfair.com/furniture/pdp/millwood-pines-ausherman-desk-w000536059.html?piid=132915600&lt;br&gt;&lt;/a&gt;&lt;/div&gt;&lt;div&gt;&lt;br&gt;&lt;/div&gt;&lt;div&gt;modern drawers&lt;/div&gt;&lt;div&gt;&lt;a href=&quot;https://www.wayfair.com/furniture/pdp/birch-lane-regan-desk-w004253623.html&quot;&gt;https://www.wayfair.com/furniture/pdp/birch-lane-regan-desk-w004253623.html&lt;/a&gt;&lt;br&gt;&lt;/div&gt;&lt;div&gt;&lt;br&gt;&lt;/div&gt;&lt;div&gt;L-shape under window&lt;/div&gt;&lt;div&gt;&lt;a href=&quot;https://www.wayfair.com/furniture/pdp/mercury-row-l-shape-home-office-computer-desk-w005160804.html?piid=1723661854&quot;&gt;https://www.wayfair.com/furniture/pdp/mercury-row-l-shape-home-office-computer-desk-w005160804.html?piid=1723661854&lt;/a&gt;&lt;br&gt;&lt;/div&gt;&lt;div&gt;&lt;br&gt;&lt;/div&gt;&lt;div&gt;Minimalist side drawer&lt;/div&gt;&lt;div&gt;&lt;a href=&quot;https://www.wayfair.com/furniture/pdp/17-stories-51w-reversible-desk-with-drawers-w010050864.html?piid=1725000477&quot;&gt;https://www.wayfair.com/furniture/pdp/17-stories-51w-reversible-desk-with-drawers-w010050864.html?piid=1725000477&lt;/a&gt;&lt;br&gt;&lt;/div&gt;&lt;div&gt;&lt;br&gt;&lt;/div&gt;&lt;div&gt;Smallish desk&lt;/div&gt;&lt;div&gt;&lt;a href=&quot;https://www.wayfair.com/furniture/pdp/steelside-myra-47-w-home-office-computer-writing-study-desk-with-storage-shelves-w004812250.html?piid=1220736449&quot;&gt;https://www.wayfair.com/furniture/pdp/steelside-myra-47-w-home-office-computer-writing-study-desk-with-storage-shelves-w004812250.html?piid=1220736449&lt;/a&gt;&lt;br&gt;&lt;/div&gt;&lt;div&gt;&lt;br&gt;&lt;/div&gt;&lt;div&gt;standing desk&lt;/div&gt;&lt;div&gt;&lt;a href=&quot;https://www.wayfair.com/furniture/pdp/trent-austin-design-reichenbach-desk-w100187409.html?piid=1823451471%2C1825644112&quot;&gt;https://www.wayfair.com/furniture/pdp/trent-austin-design-reichenbach-desk-w100187409.html?piid=1823451471%2C1825644112&lt;/a&gt;&lt;br&gt;&lt;/div&gt;&lt;div&gt;&lt;br&gt;&lt;/div&gt;&lt;div&gt;&lt;br&gt;&lt;/div&gt;" style="text;html=1;whiteSpace=wrap;overflow=hidden;rounded=0;" vertex="1" parent="0tK5uIv-c3e3OairfotX-52">
          <mxGeometry x="-457" y="165" width="441.25" height="693.27" as="geometry" />
        </mxCell>
        <mxCell id="0tK5uIv-c3e3OairfotX-68" value="desk1" parent="0" visible="0" />
        <mxCell id="0tK5uIv-c3e3OairfotX-69" value="Desk" style="rounded=0;whiteSpace=wrap;html=1;" vertex="1" parent="0tK5uIv-c3e3OairfotX-68">
          <mxGeometry x="39.37400000000001" y="378.004" width="232.283" height="94.488" as="geometry" />
        </mxCell>
        <mxCell id="0tK5uIv-c3e3OairfotX-70" value="Actor" style="shape=umlActor;verticalLabelPosition=bottom;verticalAlign=top;html=1;outlineConnect=0;" vertex="1" parent="0tK5uIv-c3e3OairfotX-68">
          <mxGeometry x="149.004" y="282.994" width="30" height="60" as="geometry" />
        </mxCell>
        <mxCell id="0tK5uIv-c3e3OairfotX-71" value="" style="rounded=0;whiteSpace=wrap;html=1;" vertex="1" parent="0tK5uIv-c3e3OairfotX-68">
          <mxGeometry x="64.964" y="228.344" width="7.874" height="188.976" as="geometry" />
        </mxCell>
        <mxCell id="0tK5uIv-c3e3OairfotX-72" value="desk2" parent="0" visible="0" />
        <mxCell id="0tK5uIv-c3e3OairfotX-73" value="Desk" style="rounded=0;whiteSpace=wrap;html=1;" vertex="1" parent="0tK5uIv-c3e3OairfotX-72">
          <mxGeometry x="39.36800000000001" y="370.07800000000003" width="212.59799999999998" height="98.425" as="geometry" />
        </mxCell>
        <mxCell id="0tK5uIv-c3e3OairfotX-74" value="Actor" style="shape=umlActor;verticalLabelPosition=bottom;verticalAlign=top;html=1;outlineConnect=0;" vertex="1" parent="0tK5uIv-c3e3OairfotX-72">
          <mxGeometry x="156.878" y="290.86800000000005" width="30" height="60" as="geometry" />
        </mxCell>
        <mxCell id="0tK5uIv-c3e3OairfotX-75" value="" style="rounded=0;whiteSpace=wrap;html=1;" vertex="1" parent="0tK5uIv-c3e3OairfotX-72">
          <mxGeometry x="72.838" y="236.218" width="7.874" height="188.976" as="geometry" />
        </mxCell>
        <mxCell id="0tK5uIv-c3e3OairfotX-76" value="desk3" parent="0" visible="0" />
        <mxCell id="0tK5uIv-c3e3OairfotX-78" value="Desk3" style="rounded=0;whiteSpace=wrap;html=1;" vertex="1" parent="0tK5uIv-c3e3OairfotX-76">
          <mxGeometry x="47.24200000000001" y="377.95200000000006" width="236.22" height="78.74" as="geometry" />
        </mxCell>
        <mxCell id="0tK5uIv-c3e3OairfotX-79" value="Actor" style="shape=umlActor;verticalLabelPosition=bottom;verticalAlign=top;html=1;outlineConnect=0;" vertex="1" parent="0tK5uIv-c3e3OairfotX-76">
          <mxGeometry x="164.75199999999998" y="298.7420000000001" width="30" height="60" as="geometry" />
        </mxCell>
        <mxCell id="0tK5uIv-c3e3OairfotX-81" value="Desk3" style="rounded=0;whiteSpace=wrap;html=1;" vertex="1" parent="0tK5uIv-c3e3OairfotX-76">
          <mxGeometry x="47.246000000000016" y="271.65600000000006" width="61.0235" height="185.039" as="geometry" />
        </mxCell>
        <mxCell id="0tK5uIv-c3e3OairfotX-82" value="desk4" parent="0" visible="0" />
        <mxCell id="0tK5uIv-c3e3OairfotX-83" value="Desk" style="rounded=0;whiteSpace=wrap;html=1;" vertex="1" parent="0tK5uIv-c3e3OairfotX-82">
          <mxGeometry x="47.24800000000001" y="385.87800000000004" width="204.724" height="70.866" as="geometry" />
        </mxCell>
        <mxCell id="0tK5uIv-c3e3OairfotX-84" value="Actor" style="shape=umlActor;verticalLabelPosition=bottom;verticalAlign=top;html=1;outlineConnect=0;" vertex="1" parent="0tK5uIv-c3e3OairfotX-82">
          <mxGeometry x="156.878" y="290.86800000000005" width="30" height="60" as="geometry" />
        </mxCell>
        <mxCell id="0tK5uIv-c3e3OairfotX-85" value="" style="rounded=0;whiteSpace=wrap;html=1;" vertex="1" parent="0tK5uIv-c3e3OairfotX-82">
          <mxGeometry x="72.838" y="236.218" width="7.874" height="188.976" as="geometry" />
        </mxCell>
        <mxCell id="0tK5uIv-c3e3OairfotX-86" value="Desk" style="rounded=0;whiteSpace=wrap;html=1;" vertex="1" parent="0tK5uIv-c3e3OairfotX-82">
          <mxGeometry x="47.25" y="385.88" width="43.306999999999995" height="70.866" as="geometry" />
        </mxCell>
        <mxCell id="0tK5uIv-c3e3OairfotX-87" value="desk5" parent="0" visible="0" />
        <mxCell id="0tK5uIv-c3e3OairfotX-88" value="Desk" style="rounded=0;whiteSpace=wrap;html=1;" vertex="1" parent="0tK5uIv-c3e3OairfotX-87">
          <mxGeometry x="39.372000000000014" y="393.75200000000007" width="188.976" height="94.488" as="geometry" />
        </mxCell>
        <mxCell id="0tK5uIv-c3e3OairfotX-89" value="Actor" style="shape=umlActor;verticalLabelPosition=bottom;verticalAlign=top;html=1;outlineConnect=0;" vertex="1" parent="0tK5uIv-c3e3OairfotX-87">
          <mxGeometry x="125.98199999999997" y="291.3420000000001" width="30" height="60" as="geometry" />
        </mxCell>
        <mxCell id="0tK5uIv-c3e3OairfotX-90" value="" style="rounded=0;whiteSpace=wrap;html=1;" vertex="1" parent="0tK5uIv-c3e3OairfotX-87">
          <mxGeometry x="80.71199999999999" y="244.09199999999998" width="7.874" height="188.976" as="geometry" />
        </mxCell>
        <mxCell id="0tK5uIv-c3e3OairfotX-92" value="desk6" parent="0" visible="0" />
        <mxCell id="0tK5uIv-c3e3OairfotX-96" value="Desk" style="rounded=0;whiteSpace=wrap;html=1;" vertex="1" parent="0tK5uIv-c3e3OairfotX-92">
          <mxGeometry x="39.37000000000001" y="338.58000000000004" width="185.039" height="102.362" as="geometry" />
        </mxCell>
        <mxCell id="0tK5uIv-c3e3OairfotX-97" value="Actor" style="shape=umlActor;verticalLabelPosition=bottom;verticalAlign=top;html=1;outlineConnect=0;" vertex="1" parent="0tK5uIv-c3e3OairfotX-92">
          <mxGeometry x="125.97999999999996" y="283.4700000000001" width="30" height="60" as="geometry" />
        </mxCell>
        <mxCell id="0tK5uIv-c3e3OairfotX-98" value="" style="rounded=0;whiteSpace=wrap;html=1;" vertex="1" parent="0tK5uIv-c3e3OairfotX-92">
          <mxGeometry x="80.71" y="236.21999999999997" width="7.874" height="188.976" as="geometry" />
        </mxCell>
        <mxCell id="0tK5uIv-c3e3OairfotX-99" value="Layout2" parent="0" visible="0" />
        <mxCell id="0tK5uIv-c3e3OairfotX-100" value="King Bed" style="rounded=0;whiteSpace=wrap;html=1;direction=south;" vertex="1" parent="0tK5uIv-c3e3OairfotX-99">
          <mxGeometry x="39.37250000000003" y="393.696" width="370.078" height="338.582" as="geometry" />
        </mxCell>
        <mxCell id="0tK5uIv-c3e3OairfotX-101" value="nightstand" style="rounded=0;whiteSpace=wrap;html=1;direction=south;" vertex="1" parent="0tK5uIv-c3e3OairfotX-99">
          <mxGeometry x="39.36899999999987" y="307.0849999999999" width="78.74" height="86.61399999999999" as="geometry" />
        </mxCell>
        <mxCell id="0tK5uIv-c3e3OairfotX-103" value="big nightstand&lt;div&gt;&lt;br&gt;&lt;/div&gt;" style="rounded=0;whiteSpace=wrap;html=1;direction=west;" vertex="1" parent="0tK5uIv-c3e3OairfotX-99">
          <mxGeometry x="511.8120000000002" y="720.462" width="62.992" height="98.425" as="geometry" />
        </mxCell>
        <mxCell id="0tK5uIv-c3e3OairfotX-104" value="nightstand" style="rounded=0;whiteSpace=wrap;html=1;direction=south;" vertex="1" parent="0tK5uIv-c3e3OairfotX-99">
          <mxGeometry x="39.368999999999915" y="732.2789999999999" width="78.74" height="86.61" as="geometry" />
        </mxCell>
        <mxCell id="0tK5uIv-c3e3OairfotX-105" value="&lt;div&gt;Jewerly&lt;/div&gt;" style="rounded=0;whiteSpace=wrap;html=1;rotation=-90;direction=south;" vertex="1" parent="0tK5uIv-c3e3OairfotX-99">
          <mxGeometry x="574.8" y="220.4720000000001" width="59.055" height="74.803" as="geometry" />
        </mxCell>
        <mxCell id="0tK5uIv-c3e3OairfotX-106" value="marco bed" style="rounded=0;whiteSpace=wrap;html=1;rotation=-90;" vertex="1" parent="0tK5uIv-c3e3OairfotX-99">
          <mxGeometry x="795.2740000000001" y="307.0840000000001" width="149.606" height="157.48" as="geometry" />
        </mxCell>
        <mxCell id="0tK5uIv-c3e3OairfotX-110" value="Desk3" style="rounded=0;whiteSpace=wrap;html=1;" vertex="1" parent="0tK5uIv-c3e3OairfotX-99">
          <mxGeometry x="574.8059999999999" y="739.6760000000002" width="236.22" height="78.74" as="geometry" />
        </mxCell>
        <mxCell id="0tK5uIv-c3e3OairfotX-111" value="Actor" style="shape=umlActor;verticalLabelPosition=bottom;verticalAlign=top;html=1;outlineConnect=0;" vertex="1" parent="0tK5uIv-c3e3OairfotX-99">
          <mxGeometry x="692.3159999999999" y="660.4660000000001" width="30" height="60" as="geometry" />
        </mxCell>
        <mxCell id="0tK5uIv-c3e3OairfotX-112" value="Desk3" style="rounded=0;whiteSpace=wrap;html=1;" vertex="1" parent="0tK5uIv-c3e3OairfotX-99">
          <mxGeometry x="574.81" y="633.3800000000001" width="61.0235" height="185.039" as="geometry" />
        </mxCell>
        <mxCell id="0tK5uIv-c3e3OairfotX-116" value="armchair - current" parent="0" visible="0" />
        <mxCell id="0tK5uIv-c3e3OairfotX-117" value="chair&lt;div&gt;&lt;br&gt;&lt;/div&gt;" style="rounded=0;whiteSpace=wrap;html=1;rotation=-45;" vertex="1" parent="0tK5uIv-c3e3OairfotX-116">
          <mxGeometry x="716.536" y="55.1159999999999" width="125.984" height="141.732" as="geometry" />
        </mxCell>
        <mxCell id="0tK5uIv-c3e3OairfotX-118" value="armchair - chaise" parent="0" visible="0" />
        <mxCell id="0tK5uIv-c3e3OairfotX-120" value="marco bed" style="rounded=0;whiteSpace=wrap;html=1;rotation=-105;" vertex="1" parent="0tK5uIv-c3e3OairfotX-118">
          <mxGeometry x="740.1540000000001" y="0.00400000000015055" width="98.425" height="196.85" as="geometry" />
        </mxCell>
        <mxCell id="0tK5uIv-c3e3OairfotX-121" value="&lt;a href=&quot;https://www.wayfair.com/furniture/pdp/lark-manor-ameerat-tufted-armless-chaise-lounge-w009988096.html?piid=118082393&quot;&gt;chaise arm chair&lt;/a&gt;&lt;div&gt;&lt;a href=&quot;https://www.wayfair.com/furniture/pdp/lark-manor-ameerat-tufted-armless-chaise-lounge-w009988096.html?piid=118082393&quot;&gt;https://www.wayfair.com/furniture/pdp/lark-manor-ameerat-tufted-armless-chaise-lounge-w009988096.html?piid=118082393&lt;/a&gt;&lt;br&gt;&lt;/div&gt;" style="text;html=1;align=center;verticalAlign=middle;whiteSpace=wrap;rounded=0;" vertex="1" parent="0tK5uIv-c3e3OairfotX-118">
          <mxGeometry x="-7.87" y="78.74" width="472.44" height="30" as="geometry" />
        </mxCell>
        <mxCell id="0tK5uIv-c3e3OairfotX-122" value="" style="ellipse;whiteSpace=wrap;html=1;aspect=fixed;" vertex="1" parent="0tK5uIv-c3e3OairfotX-118">
          <mxGeometry x="685.04" y="31.5" width="32.27" height="32.27" as="geometry" />
        </mxCell>
        <mxCell id="0tK5uIv-c3e3OairfotX-123" value="" style="ellipse;whiteSpace=wrap;html=1;aspect=fixed;" vertex="1" parent="0tK5uIv-c3e3OairfotX-118">
          <mxGeometry x="732.284" y="133.854" width="32.27" height="32.27" as="geometry" />
        </mxCell>
      </root>
    </mxGraphModel>
  </diagram>
  <diagram id="ROB7kTgnsN239aBTxFKM" name="basement living">
    <mxGraphModel dx="1611" dy="958" grid="1" gridSize="7.874" guides="1" tooltips="1" connect="1" arrows="1" fold="1" page="1" pageScale="1" pageWidth="1100" pageHeight="850" math="0" shadow="0">
      <root>
        <mxCell id="0" />
        <mxCell id="1" value="outline" parent="0" />
        <mxCell id="7AKyhCoD-Wr6pZGXVDkH-5" value="" style="group" vertex="1" connectable="0" parent="1">
          <mxGeometry x="39.37" y="7.8700000000000045" width="1007.872" height="566.932" as="geometry" />
        </mxCell>
        <mxCell id="xVPakI0Vcbg4cpq8rlbc-1" value="" style="endArrow=none;html=1;rounded=0;strokeWidth=1.9685;jumpSize=3.937;arcSize=0;" edge="1" parent="7AKyhCoD-Wr6pZGXVDkH-5">
          <mxGeometry width="50" height="50" relative="1" as="geometry">
            <mxPoint y="31.499999999999993" as="sourcePoint" />
            <mxPoint x="1007.872" y="31.499999999999993" as="targetPoint" />
          </mxGeometry>
        </mxCell>
        <mxCell id="xVPakI0Vcbg4cpq8rlbc-2" value="80% to scale&lt;div&gt;&lt;br&gt;&lt;/div&gt;" style="text;html=1;align=center;verticalAlign=middle;whiteSpace=wrap;rounded=0;" vertex="1" parent="7AKyhCoD-Wr6pZGXVDkH-5">
          <mxGeometry x="283.46000000000004" width="204.41" height="30" as="geometry" />
        </mxCell>
        <mxCell id="wzZtIhnkp9DuD-mt_S-H-1" value="" style="endArrow=none;html=1;rounded=0;strokeWidth=1.9685;jumpSize=3.937;arcSize=0;" edge="1" parent="7AKyhCoD-Wr6pZGXVDkH-5">
          <mxGeometry width="50" height="50" relative="1" as="geometry">
            <mxPoint x="1007.872" y="31.499999999999993" as="sourcePoint" />
            <mxPoint x="1007.872" y="566.932" as="targetPoint" />
          </mxGeometry>
        </mxCell>
        <mxCell id="wzZtIhnkp9DuD-mt_S-H-2" value="" style="endArrow=none;html=1;rounded=0;strokeWidth=1.9685;jumpSize=3.937;arcSize=0;" edge="1" parent="7AKyhCoD-Wr6pZGXVDkH-5">
          <mxGeometry width="50" height="50" relative="1" as="geometry">
            <mxPoint y="62.995999999999995" as="sourcePoint" />
            <mxPoint x="1007.872" y="62.995999999999995" as="targetPoint" />
          </mxGeometry>
        </mxCell>
        <mxCell id="wzZtIhnkp9DuD-mt_S-H-3" value="" style="endArrow=none;html=1;rounded=0;strokeWidth=1.9685;jumpSize=3.937;arcSize=0;" edge="1" parent="7AKyhCoD-Wr6pZGXVDkH-5">
          <mxGeometry width="50" height="50" relative="1" as="geometry">
            <mxPoint x="236.21999999999997" y="566.932" as="sourcePoint" />
            <mxPoint x="1007.872" y="566.932" as="targetPoint" />
          </mxGeometry>
        </mxCell>
        <mxCell id="hq2x7u2-sTQgZaUFf1MH-1" value="" style="endArrow=none;html=1;rounded=0;strokeWidth=1.9685;jumpSize=3.937;arcSize=0;fillColor=#f8cecc;strokeColor=#b85450;" edge="1" parent="7AKyhCoD-Wr6pZGXVDkH-5">
          <mxGeometry width="50" height="50" relative="1" as="geometry">
            <mxPoint x="236.21999999999997" y="566.932" as="sourcePoint" />
            <mxPoint x="403.1488" y="566.932" as="targetPoint" />
          </mxGeometry>
        </mxCell>
        <mxCell id="7AKyhCoD-Wr6pZGXVDkH-1" value="" style="endArrow=none;html=1;rounded=0;strokeWidth=1.9685;jumpSize=3.937;arcSize=0;fillColor=#dae8fc;strokeColor=#6c8ebf;" edge="1" parent="7AKyhCoD-Wr6pZGXVDkH-5">
          <mxGeometry width="50" height="50" relative="1" as="geometry">
            <mxPoint x="812.5968" y="31.499999999999993" as="sourcePoint" />
            <mxPoint x="1003.9350000000001" y="31.499999999999993" as="targetPoint" />
          </mxGeometry>
        </mxCell>
        <mxCell id="7AKyhCoD-Wr6pZGXVDkH-2" value="" style="endArrow=none;html=1;rounded=0;strokeWidth=1.9685;jumpSize=3.937;arcSize=0;" edge="1" parent="7AKyhCoD-Wr6pZGXVDkH-5">
          <mxGeometry width="50" height="50" relative="1" as="geometry">
            <mxPoint y="31.499999999999993" as="sourcePoint" />
            <mxPoint y="274.01919999999996" as="targetPoint" />
          </mxGeometry>
        </mxCell>
        <mxCell id="7AKyhCoD-Wr6pZGXVDkH-3" value="" style="endArrow=none;html=1;rounded=0;strokeWidth=1.9685;jumpSize=3.937;arcSize=0;" edge="1" parent="7AKyhCoD-Wr6pZGXVDkH-5">
          <mxGeometry width="50" height="50" relative="1" as="geometry">
            <mxPoint x="236.21999999999997" y="400.00319999999994" as="sourcePoint" />
            <mxPoint x="236.21999999999997" y="566.932" as="targetPoint" />
          </mxGeometry>
        </mxCell>
        <mxCell id="7AKyhCoD-Wr6pZGXVDkH-4" value="" style="endArrow=none;html=1;rounded=0;strokeWidth=1.9685;jumpSize=3.937;arcSize=0;" edge="1" parent="7AKyhCoD-Wr6pZGXVDkH-5">
          <mxGeometry width="50" height="50" relative="1" as="geometry">
            <mxPoint x="7.874000000000002" y="400.00319999999994" as="sourcePoint" />
            <mxPoint x="236.21999999999997" y="400.00319999999994" as="targetPoint" />
          </mxGeometry>
        </mxCell>
      </root>
    </mxGraphModel>
  </diagram>
  <diagram id="WJ3YoYo6-ONuE_nA7wfy" name="Basement bedroom">
    <mxGraphModel dx="2014" dy="1198" grid="1" gridSize="7.874" guides="1" tooltips="1" connect="1" arrows="1" fold="1" page="1" pageScale="1" pageWidth="1100" pageHeight="850" math="0" shadow="0">
      <root>
        <mxCell id="0" />
        <mxCell id="1" parent="0" />
        <mxCell id="cmGs6fmrPBMp3vu_bMxe-1" value="" style="endArrow=none;html=1;rounded=0;strokeWidth=1.9685;jumpSize=3.937;arcSize=0;" edge="1" parent="1">
          <mxGeometry width="50" height="50" relative="1" as="geometry">
            <mxPoint x="594.487" y="39.37" as="sourcePoint" />
            <mxPoint x="1047.242" y="39.37" as="targetPoint" />
          </mxGeometry>
        </mxCell>
        <mxCell id="4KIPhJMOGVEjor8jCpRB-1" value="" style="endArrow=none;html=1;rounded=0;strokeWidth=1.9685;jumpSize=3.937;arcSize=0;" edge="1" parent="1">
          <mxGeometry width="50" height="50" relative="1" as="geometry">
            <mxPoint x="1047.242" y="39.37" as="sourcePoint" />
            <mxPoint x="1047.242" y="334.645" as="targetPoint" />
          </mxGeometry>
        </mxCell>
        <mxCell id="4KIPhJMOGVEjor8jCpRB-2" value="" style="endArrow=none;html=1;rounded=0;strokeWidth=1.9685;jumpSize=3.937;arcSize=0;" edge="1" parent="1">
          <mxGeometry width="50" height="50" relative="1" as="geometry">
            <mxPoint x="594.487" y="39.37" as="sourcePoint" />
            <mxPoint x="594.487" y="102.362" as="targetPoint" />
          </mxGeometry>
        </mxCell>
        <mxCell id="4KIPhJMOGVEjor8jCpRB-3" value="" style="endArrow=none;html=1;rounded=0;strokeWidth=1.9685;jumpSize=3.937;arcSize=0;" edge="1" parent="1">
          <mxGeometry width="50" height="50" relative="1" as="geometry">
            <mxPoint x="594.487" y="78.74" as="sourcePoint" />
            <mxPoint x="1047.242" y="78.74" as="targetPoint" />
          </mxGeometry>
        </mxCell>
        <mxCell id="4KIPhJMOGVEjor8jCpRB-4" value="" style="endArrow=none;html=1;rounded=0;strokeWidth=1.9685;jumpSize=3.937;arcSize=0;" edge="1" parent="1">
          <mxGeometry width="50" height="50" relative="1" as="geometry">
            <mxPoint x="515.747" y="102.362" as="sourcePoint" />
            <mxPoint x="594.487" y="102.362" as="targetPoint" />
          </mxGeometry>
        </mxCell>
        <mxCell id="4KIPhJMOGVEjor8jCpRB-5" value="" style="endArrow=none;html=1;rounded=0;strokeWidth=1.9685;jumpSize=3.937;arcSize=0;" edge="1" parent="1">
          <mxGeometry width="50" height="50" relative="1" as="geometry">
            <mxPoint x="515.747" y="102.362" as="sourcePoint" />
            <mxPoint x="515.747" y="220.47199999999998" as="targetPoint" />
          </mxGeometry>
        </mxCell>
        <mxCell id="4KIPhJMOGVEjor8jCpRB-6" value="" style="endArrow=none;html=1;rounded=0;strokeWidth=1.9685;jumpSize=3.937;arcSize=0;" edge="1" parent="1">
          <mxGeometry width="50" height="50" relative="1" as="geometry">
            <mxPoint x="309.05449999999996" y="220.47199999999998" as="sourcePoint" />
            <mxPoint x="515.747" y="220.47199999999998" as="targetPoint" />
          </mxGeometry>
        </mxCell>
        <mxCell id="4KIPhJMOGVEjor8jCpRB-7" value="" style="endArrow=none;html=1;rounded=0;strokeWidth=1.9685;jumpSize=3.937;arcSize=0;" edge="1" parent="1">
          <mxGeometry width="50" height="50" relative="1" as="geometry">
            <mxPoint x="309.05449999999996" y="220.47199999999998" as="sourcePoint" />
            <mxPoint x="309.05449999999996" y="622.0459999999999" as="targetPoint" />
          </mxGeometry>
        </mxCell>
        <mxCell id="4KIPhJMOGVEjor8jCpRB-8" value="" style="endArrow=none;html=1;rounded=0;strokeWidth=1.9685;jumpSize=3.937;arcSize=0;" edge="1" parent="1">
          <mxGeometry width="50" height="50" relative="1" as="geometry">
            <mxPoint x="190.9445" y="220.47199999999998" as="sourcePoint" />
            <mxPoint x="190.9445" y="622.0459999999999" as="targetPoint" />
          </mxGeometry>
        </mxCell>
        <mxCell id="4KIPhJMOGVEjor8jCpRB-9" value="" style="endArrow=none;html=1;rounded=0;strokeWidth=1.9685;jumpSize=3.937;arcSize=0;" edge="1" parent="1">
          <mxGeometry width="50" height="50" relative="1" as="geometry">
            <mxPoint x="190.9445" y="220.47199999999998" as="sourcePoint" />
            <mxPoint x="309.05449999999996" y="220.47199999999998" as="targetPoint" />
          </mxGeometry>
        </mxCell>
        <mxCell id="4KIPhJMOGVEjor8jCpRB-10" value="" style="endArrow=none;html=1;rounded=0;strokeWidth=1.9685;jumpSize=3.937;arcSize=0;" edge="1" parent="1">
          <mxGeometry width="50" height="50" relative="1" as="geometry">
            <mxPoint x="190.9445" y="622.0459999999999" as="sourcePoint" />
            <mxPoint x="309.05449999999996" y="622.0459999999999" as="targetPoint" />
          </mxGeometry>
        </mxCell>
        <mxCell id="4KIPhJMOGVEjor8jCpRB-11" value="" style="endArrow=none;html=1;rounded=0;strokeWidth=1.9685;jumpSize=3.937;arcSize=0;" edge="1" parent="1">
          <mxGeometry width="50" height="50" relative="1" as="geometry">
            <mxPoint x="309.05449999999996" y="622.0459999999999" as="sourcePoint" />
            <mxPoint x="791.337" y="622.0459999999999" as="targetPoint" />
          </mxGeometry>
        </mxCell>
        <mxCell id="4KIPhJMOGVEjor8jCpRB-12" value="" style="endArrow=none;html=1;rounded=0;strokeWidth=1.9685;jumpSize=3.937;arcSize=0;" edge="1" parent="1">
          <mxGeometry width="50" height="50" relative="1" as="geometry">
            <mxPoint x="1047.242" y="334.645" as="sourcePoint" />
            <mxPoint x="791.337" y="622.0459999999999" as="targetPoint" />
          </mxGeometry>
        </mxCell>
        <mxCell id="ufqAmyXT1paWVRv1bVyC-1" value="" style="endArrow=none;html=1;rounded=0;strokeWidth=1.9685;jumpSize=3.937;arcSize=0;fillColor=#f8cecc;strokeColor=#b85450;" edge="1" parent="1">
          <mxGeometry width="50" height="50" relative="1" as="geometry">
            <mxPoint x="309.05449999999996" y="622" as="sourcePoint" />
            <mxPoint x="442.91249999999997" y="622" as="targetPoint" />
          </mxGeometry>
        </mxCell>
      </root>
    </mxGraphModel>
  </diagram>
  <diagram id="YZ6ty41ZDPt-ynz_1RVO" name="Basement backroom">
    <mxGraphModel dx="1895" dy="1977" grid="1" gridSize="7.874" guides="1" tooltips="1" connect="1" arrows="1" fold="1" page="1" pageScale="1" pageWidth="1100" pageHeight="850" math="0" shadow="0">
      <root>
        <mxCell id="0" />
        <mxCell id="1" parent="0" />
        <mxCell id="m8ReaGj2NDwmAntLt1zS-1" value="" style="endArrow=none;html=1;rounded=0;strokeWidth=1.9685;jumpSize=3.937;arcSize=0;" edge="1" parent="1">
          <mxGeometry width="50" height="50" relative="1" as="geometry">
            <mxPoint x="39.37" y="826.77" as="sourcePoint" />
            <mxPoint x="775.5889999999999" y="826.77" as="targetPoint" />
          </mxGeometry>
        </mxCell>
        <mxCell id="m8ReaGj2NDwmAntLt1zS-2" value="" style="endArrow=none;html=1;rounded=0;strokeWidth=1.9685;jumpSize=3.937;arcSize=0;" edge="1" parent="1">
          <mxGeometry width="50" height="50" relative="1" as="geometry">
            <mxPoint x="39.37" y="177.165" as="sourcePoint" />
            <mxPoint x="39.37" y="826.77" as="targetPoint" />
          </mxGeometry>
        </mxCell>
        <mxCell id="m8ReaGj2NDwmAntLt1zS-3" value="" style="endArrow=none;html=1;rounded=0;strokeWidth=1.9685;jumpSize=3.937;arcSize=0;" edge="1" parent="1">
          <mxGeometry width="50" height="50" relative="1" as="geometry">
            <mxPoint x="775.5889999999999" y="118.11" as="sourcePoint" />
            <mxPoint x="775.5889999999999" y="826.77" as="targetPoint" />
          </mxGeometry>
        </mxCell>
        <mxCell id="m8ReaGj2NDwmAntLt1zS-4" value="" style="endArrow=none;html=1;rounded=0;strokeWidth=1.9685;jumpSize=3.937;arcSize=0;" edge="1" parent="1">
          <mxGeometry width="50" height="50" relative="1" as="geometry">
            <mxPoint x="39.37" y="177.165" as="sourcePoint" />
            <mxPoint x="228.346" y="177.165" as="targetPoint" />
          </mxGeometry>
        </mxCell>
        <mxCell id="m8ReaGj2NDwmAntLt1zS-5" value="" style="endArrow=none;html=1;rounded=0;strokeWidth=1.9685;jumpSize=3.937;arcSize=0;" edge="1" parent="1">
          <mxGeometry width="50" height="50" relative="1" as="geometry">
            <mxPoint x="228.346" y="-43.306999999999995" as="sourcePoint" />
            <mxPoint x="228.346" y="177.165" as="targetPoint" />
          </mxGeometry>
        </mxCell>
        <mxCell id="m8ReaGj2NDwmAntLt1zS-6" value="" style="endArrow=none;html=1;rounded=0;strokeWidth=1.9685;jumpSize=3.937;arcSize=0;" edge="1" parent="1">
          <mxGeometry width="50" height="50" relative="1" as="geometry">
            <mxPoint x="228.346" y="-43.306999999999995" as="sourcePoint" />
            <mxPoint x="527.558" y="-43.306999999999995" as="targetPoint" />
          </mxGeometry>
        </mxCell>
        <mxCell id="m8ReaGj2NDwmAntLt1zS-7" value="" style="endArrow=none;html=1;rounded=0;strokeWidth=1.9685;jumpSize=3.937;arcSize=0;" edge="1" parent="1">
          <mxGeometry width="50" height="50" relative="1" as="geometry">
            <mxPoint x="527.558" y="-43.306999999999995" as="sourcePoint" />
            <mxPoint x="527.558" y="118.11" as="targetPoint" />
          </mxGeometry>
        </mxCell>
        <mxCell id="m8ReaGj2NDwmAntLt1zS-8" value="" style="endArrow=none;html=1;rounded=0;strokeWidth=1.9685;jumpSize=3.937;arcSize=0;" edge="1" parent="1">
          <mxGeometry width="50" height="50" relative="1" as="geometry">
            <mxPoint x="527.558" y="118.11" as="sourcePoint" />
            <mxPoint x="775.5889999999999" y="118.11" as="targetPoint" />
          </mxGeometry>
        </mxCell>
        <mxCell id="qJTA4CtXI0eGRZnncJ73-1" value="" style="endArrow=none;html=1;rounded=0;strokeWidth=1.9685;jumpSize=3.937;arcSize=0;" edge="1" parent="1">
          <mxGeometry width="50" height="50" relative="1" as="geometry">
            <mxPoint x="527.5545" y="-283.468" as="sourcePoint" />
            <mxPoint x="527.5545" y="118.10599999999994" as="targetPoint" />
          </mxGeometry>
        </mxCell>
        <mxCell id="qJTA4CtXI0eGRZnncJ73-2" value="" style="endArrow=none;html=1;rounded=0;strokeWidth=1.9685;jumpSize=3.937;arcSize=0;" edge="1" parent="1">
          <mxGeometry width="50" height="50" relative="1" as="geometry">
            <mxPoint x="228.3485" y="-283.464" as="sourcePoint" />
            <mxPoint x="228.3485" y="118.10999999999993" as="targetPoint" />
          </mxGeometry>
        </mxCell>
        <mxCell id="qJTA4CtXI0eGRZnncJ73-3" value="" style="endArrow=none;html=1;rounded=0;strokeWidth=1.9685;jumpSize=3.937;arcSize=0;" edge="1" parent="1">
          <mxGeometry width="50" height="50" relative="1" as="geometry">
            <mxPoint x="228.35" y="-283.46299999999997" as="sourcePoint" />
            <mxPoint x="527.562" y="-283.46299999999997" as="targetPoint" />
          </mxGeometry>
        </mxCell>
      </root>
    </mxGraphModel>
  </diagram>
</mxfile>
